<?xml version="1.0" encoding="UTF-8"?>
<svg width="276px" height="44px" viewBox="0 0 276 44" version="1.1" xmlns="http://www.w3.org/2000/svg" xmlns:xlink="http://www.w3.org/1999/xlink">
    <!-- Generator: Sketch 53.2 (72643) - https://sketchapp.com -->
    <title>5-stars-blue</title>
    <desc>Created with Sketch.</desc>
    <g id="Symbols" stroke="none" stroke-width="1" fill="none" fill-rule="evenodd">
        <g id="stats-section/desktop" transform="translate(-1019.000000, -169.000000)" fill="#0F4BEB" fill-rule="nonzero">
            <g id="stat-3">
                <g transform="translate(962.000000, 169.000000)">
                    <g id="5-stars-blue" transform="translate(57.000000, 0.000000)">
                        <g id="star">
                            <path d="M45.9368846,16.627687 C45.7858242,16.1642304 45.3892907,15.83319 44.9077858,15.7575236 L30.5570511,13.7145314 L24.0992205,0.709372313 C23.8820712,0.274290628 23.4383314,0 22.9568264,0 L22.9568264,0 C22.4753215,0 22.0315817,0.274290628 21.8144324,0.71883061 L15.4415733,13.7618229 L1.09083854,15.8993981 C0.609333624,15.9750645 0.212800164,16.3061049 0.0617397987,16.7695615 C-0.0893205668,17.2330181 0.042857253,17.7437661 0.392184348,18.0748065 L10.8059083,28.1857266 L8.39838372,42.505589 C8.31341227,42.9879622 8.511679,43.4703353 8.90821246,43.7540843 C9.12536173,43.9148753 9.38971737,44 9.65407301,44 C9.86178101,44 10.0600477,43.9527085 10.2488732,43.8486672 L23.0606805,37.0481513 L35.9102528,43.7730009 C36.0990783,43.8675838 36.297345,43.9148753 36.4956117,43.9148753 L36.4956117,43.9148753 C37.1942659,43.9148753 37.7701835,43.3379192 37.7701835,42.6380052 C37.7701835,42.5339639 37.7607423,42.4393809 37.7324185,42.3447979 L35.2493637,28.1100602 L45.5969987,17.9423904 C45.9652084,17.6018917 46.0879449,17.0911436 45.9368846,16.627687 Z M33.0023408,26.7575236 C32.70022,27.0507309 32.5680422,27.4763543 32.6435724,27.8925193 L34.8056239,40.311264 L23.6460394,34.4754944 C23.2778297,34.2768702 22.8340899,34.2863285 22.456439,34.4754944 L11.3346196,40.3774721 L13.4211409,27.9398108 C13.4872298,27.5236457 13.355052,27.1074807 13.0529312,26.8142734 L4.02707439,18.0369733 L16.4801133,16.183147 C16.8955293,16.116939 17.2542977,15.8615649 17.4336818,15.483233 L22.9662677,4.1616509 L28.5743838,15.4548581 C28.7632092,15.83319 29.1219776,16.0885641 29.5373936,16.1547721 L41.9998738,17.9329321 L33.0023408,26.7575236 Z" id="Shape"></path>
                        </g>
                        <g id="star-copy" transform="translate(58.000000, 0.000000)">
                            <path d="M45.9368846,16.627687 C45.7858242,16.1642304 45.3892907,15.83319 44.9077858,15.7575236 L30.5570511,13.7145314 L24.0992205,0.709372313 C23.8820712,0.274290628 23.4383314,0 22.9568264,0 L22.9568264,0 C22.4753215,0 22.0315817,0.274290628 21.8144324,0.71883061 L15.4415733,13.7618229 L1.09083854,15.8993981 C0.609333624,15.9750645 0.212800164,16.3061049 0.0617397987,16.7695615 C-0.0893205668,17.2330181 0.042857253,17.7437661 0.392184348,18.0748065 L10.8059083,28.1857266 L8.39838372,42.505589 C8.31341227,42.9879622 8.511679,43.4703353 8.90821246,43.7540843 C9.12536173,43.9148753 9.38971737,44 9.65407301,44 C9.86178101,44 10.0600477,43.9527085 10.2488732,43.8486672 L23.0606805,37.0481513 L35.9102528,43.7730009 C36.0990783,43.8675838 36.297345,43.9148753 36.4956117,43.9148753 L36.4956117,43.9148753 C37.1942659,43.9148753 37.7701835,43.3379192 37.7701835,42.6380052 C37.7701835,42.5339639 37.7607423,42.4393809 37.7324185,42.3447979 L35.2493637,28.1100602 L45.5969987,17.9423904 C45.9652084,17.6018917 46.0879449,17.0911436 45.9368846,16.627687 Z M33.0023408,26.7575236 C32.70022,27.0507309 32.5680422,27.4763543 32.6435724,27.8925193 L34.8056239,40.311264 L23.6460394,34.4754944 C23.2778297,34.2768702 22.8340899,34.2863285 22.456439,34.4754944 L11.3346196,40.3774721 L13.4211409,27.9398108 C13.4872298,27.5236457 13.355052,27.1074807 13.0529312,26.8142734 L4.02707439,18.0369733 L16.4801133,16.183147 C16.8955293,16.116939 17.2542977,15.8615649 17.4336818,15.483233 L22.9662677,4.1616509 L28.5743838,15.4548581 C28.7632092,15.83319 29.1219776,16.0885641 29.5373936,16.1547721 L41.9998738,17.9329321 L33.0023408,26.7575236 Z" id="Shape"></path>
                        </g>
                        <g id="star-copy-2" transform="translate(115.000000, 0.000000)">
                            <path d="M45.9368846,16.627687 C45.7858242,16.1642304 45.3892907,15.83319 44.9077858,15.7575236 L30.5570511,13.7145314 L24.0992205,0.709372313 C23.8820712,0.274290628 23.4383314,0 22.9568264,0 L22.9568264,0 C22.4753215,0 22.0315817,0.274290628 21.8144324,0.71883061 L15.4415733,13.7618229 L1.09083854,15.8993981 C0.609333624,15.9750645 0.212800164,16.3061049 0.0617397987,16.7695615 C-0.0893205668,17.2330181 0.042857253,17.7437661 0.392184348,18.0748065 L10.8059083,28.1857266 L8.39838372,42.505589 C8.31341227,42.9879622 8.511679,43.4703353 8.90821246,43.7540843 C9.12536173,43.9148753 9.38971737,44 9.65407301,44 C9.86178101,44 10.0600477,43.9527085 10.2488732,43.8486672 L23.0606805,37.0481513 L35.9102528,43.7730009 C36.0990783,43.8675838 36.297345,43.9148753 36.4956117,43.9148753 L36.4956117,43.9148753 C37.1942659,43.9148753 37.7701835,43.3379192 37.7701835,42.6380052 C37.7701835,42.5339639 37.7607423,42.4393809 37.7324185,42.3447979 L35.2493637,28.1100602 L45.5969987,17.9423904 C45.9652084,17.6018917 46.0879449,17.0911436 45.9368846,16.627687 Z M33.0023408,26.7575236 C32.70022,27.0507309 32.5680422,27.4763543 32.6435724,27.8925193 L34.8056239,40.311264 L23.6460394,34.4754944 C23.2778297,34.2768702 22.8340899,34.2863285 22.456439,34.4754944 L11.3346196,40.3774721 L13.4211409,27.9398108 C13.4872298,27.5236457 13.355052,27.1074807 13.0529312,26.8142734 L4.02707439,18.0369733 L16.4801133,16.183147 C16.8955293,16.116939 17.2542977,15.8615649 17.4336818,15.483233 L22.9662677,4.1616509 L28.5743838,15.4548581 C28.7632092,15.83319 29.1219776,16.0885641 29.5373936,16.1547721 L41.9998738,17.9329321 L33.0023408,26.7575236 Z" id="Shape"></path>
                        </g>
                        <g id="star-copy-3" transform="translate(173.000000, 0.000000)">
                            <path d="M45.9368846,16.627687 C45.7858242,16.1642304 45.3892907,15.83319 44.9077858,15.7575236 L30.5570511,13.7145314 L24.0992205,0.709372313 C23.8820712,0.274290628 23.4383314,0 22.9568264,0 L22.9568264,0 C22.4753215,0 22.0315817,0.274290628 21.8144324,0.71883061 L15.4415733,13.7618229 L1.09083854,15.8993981 C0.609333624,15.9750645 0.212800164,16.3061049 0.0617397987,16.7695615 C-0.0893205668,17.2330181 0.042857253,17.7437661 0.392184348,18.0748065 L10.8059083,28.1857266 L8.39838372,42.505589 C8.31341227,42.9879622 8.511679,43.4703353 8.90821246,43.7540843 C9.12536173,43.9148753 9.38971737,44 9.65407301,44 C9.86178101,44 10.0600477,43.9527085 10.2488732,43.8486672 L23.0606805,37.0481513 L35.9102528,43.7730009 C36.0990783,43.8675838 36.297345,43.9148753 36.4956117,43.9148753 L36.4956117,43.9148753 C37.1942659,43.9148753 37.7701835,43.3379192 37.7701835,42.6380052 C37.7701835,42.5339639 37.7607423,42.4393809 37.7324185,42.3447979 L35.2493637,28.1100602 L45.5969987,17.9423904 C45.9652084,17.6018917 46.0879449,17.0911436 45.9368846,16.627687 Z M33.0023408,26.7575236 C32.70022,27.0507309 32.5680422,27.4763543 32.6435724,27.8925193 L34.8056239,40.311264 L23.6460394,34.4754944 C23.2778297,34.2768702 22.8340899,34.2863285 22.456439,34.4754944 L11.3346196,40.3774721 L13.4211409,27.9398108 C13.4872298,27.5236457 13.355052,27.1074807 13.0529312,26.8142734 L4.02707439,18.0369733 L16.4801133,16.183147 C16.8955293,16.116939 17.2542977,15.8615649 17.4336818,15.483233 L22.9662677,4.1616509 L28.5743838,15.4548581 C28.7632092,15.83319 29.1219776,16.0885641 29.5373936,16.1547721 L41.9998738,17.9329321 L33.0023408,26.7575236 Z" id="Shape"></path>
                        </g>
                        <g id="star-copy-4" transform="translate(230.000000, 0.000000)">
                            <path d="M45.9368846,16.627687 C45.7858242,16.1642304 45.3892907,15.83319 44.9077858,15.7575236 L30.5570511,13.7145314 L24.0992205,0.709372313 C23.8820712,0.274290628 23.4383314,0 22.9568264,0 L22.9568264,0 C22.4753215,0 22.0315817,0.274290628 21.8144324,0.71883061 L15.4415733,13.7618229 L1.09083854,15.8993981 C0.609333624,15.9750645 0.212800164,16.3061049 0.0617397987,16.7695615 C-0.0893205668,17.2330181 0.042857253,17.7437661 0.392184348,18.0748065 L10.8059083,28.1857266 L8.39838372,42.505589 C8.31341227,42.9879622 8.511679,43.4703353 8.90821246,43.7540843 C9.12536173,43.9148753 9.38971737,44 9.65407301,44 C9.86178101,44 10.0600477,43.9527085 10.2488732,43.8486672 L23.0606805,37.0481513 L35.9102528,43.7730009 C36.0990783,43.8675838 36.297345,43.9148753 36.4956117,43.9148753 L36.4956117,43.9148753 C37.1942659,43.9148753 37.7701835,43.3379192 37.7701835,42.6380052 C37.7701835,42.5339639 37.7607423,42.4393809 37.7324185,42.3447979 L35.2493637,28.1100602 L45.5969987,17.9423904 C45.9652084,17.6018917 46.0879449,17.0911436 45.9368846,16.627687 Z M33.0023408,26.7575236 C32.70022,27.0507309 32.5680422,27.4763543 32.6435724,27.8925193 L34.8056239,40.311264 L23.6460394,34.4754944 C23.2778297,34.2768702 22.8340899,34.2863285 22.456439,34.4754944 L11.3346196,40.3774721 L13.4211409,27.9398108 C13.4872298,27.5236457 13.355052,27.1074807 13.0529312,26.8142734 L4.02707439,18.0369733 L16.4801133,16.183147 C16.8955293,16.116939 17.2542977,15.8615649 17.4336818,15.483233 L22.9662677,4.1616509 L28.5743838,15.4548581 C28.7632092,15.83319 29.1219776,16.0885641 29.5373936,16.1547721 L41.9998738,17.9329321 L33.0023408,26.7575236 Z" id="Shape"></path>
                        </g>
                    </g>
                </g>
            </g>
        </g>
    </g>
</svg>