<?xml version="1.0" encoding="UTF-8"?>
<svg width="14px" height="20px" viewBox="0 0 14 20" version="1.1" xmlns="http://www.w3.org/2000/svg" xmlns:xlink="http://www.w3.org/1999/xlink">
    <!-- Generator: Sketch 53.2 (72643) - https://sketchapp.com -->
    <title>icon-duration-blue</title>
    <desc>Created with Sketch.</desc>
    <g id="Symbols" stroke="none" stroke-width="1" fill="none" fill-rule="evenodd">
        <g id="quick-facts/light/desktop" transform="translate(-17.000000, -21.000000)" fill="#0F4BEB">
            <g id="duration">
                <g transform="translate(16.000000, 20.000000)">
                    <g id="icon-duration-blue">
                        <path d="M1,20.86 C1,20.937 1.063,21 1.14,21 L14.381,21 C14.4183033,21.0002665 14.4541703,20.9856342 14.480642,20.9593502 C14.5071138,20.9330662 14.522001,20.8973042 14.522,20.86 L14.522,19.732 C14.5214552,19.6549069 14.4590931,19.5925448 14.382,19.592 L1.14,19.592 C1.06251671,19.5919981 0.999549527,19.6545187 0.999,19.732 L0.999,20.859 L1,20.86 Z M1,2.268 C1,2.345 1.063,2.408 1.14,2.408 L14.381,2.408 C14.4183033,2.40826646 14.4541703,2.39363422 14.480642,2.36735019 C14.5071138,2.34106616 14.522001,2.30530422 14.522,2.268 L14.522,1.14 C14.5220019,1.06251671 14.4594813,0.999549527 14.382,0.999 L1.14,0.999 C1.06251866,0.999549527 0.999998051,1.06251671 1,1.14 L1,2.268 Z M1.862,18.36 C1.862,18.438 1.926,18.501 2.003,18.501 L3.13,18.501 C3.16713031,18.501 3.20273986,18.48625 3.22899495,18.4599949 C3.25525004,18.4337399 3.27,18.3981303 3.27,18.361 L3.27,16.797 C3.27,16.72 3.315,16.611 3.369,16.555 L7.528,12.222 C7.55346442,12.1954104 7.58868367,12.1803742 7.6255,12.1803742 C7.66231633,12.1803742 7.69753558,12.1954104 7.723,12.222 L11.883,16.555 C11.9411887,16.6227304 11.975299,16.7078303 11.98,16.797 L11.98,18.36 C11.9797335,18.3973033 11.9943658,18.4331703 12.0206498,18.459642 C12.0469338,18.4861138 12.0826958,18.501001 12.12,18.501 L13.247,18.501 C13.2843033,18.5012665 13.3201703,18.4866342 13.346642,18.4603502 C13.3731138,18.4340662 13.388001,18.3983042 13.388,18.361 L13.388,16.231 C13.3835173,16.1414826 13.3493936,16.0559974 13.291,15.988 L8.699,11.205 C8.64465074,11.1478597 8.64465074,11.0581403 8.699,11.001 L13.291,6.218 C13.3493279,6.1499628 13.3834423,6.06450102 13.388,5.975 L13.388,3.645 C13.3882662,3.60760419 13.3736655,3.57163439 13.3474102,3.54500402 C13.3211549,3.51837365 13.2853958,3.50326428 13.248,3.503 L12.12,3.503 C12.0421279,3.503 11.979,3.56612785 11.979,3.644 L11.979,5.408 C11.9742365,5.49763794 11.9397555,5.5831366 11.881,5.651 L7.723,9.984 C7.69753558,10.0105896 7.66231633,10.0256258 7.6255,10.0256258 C7.58868367,10.0256258 7.55346442,10.0105896 7.528,9.984 L3.368,5.651 C3.30960642,5.58300256 3.27548272,5.49751741 3.271,5.408 L3.271,3.644 C3.27045047,3.56651866 3.20748329,3.50399805 3.13,3.504 L2.003,3.504 C1.92590695,3.50454485 1.86354485,3.56690695 1.863,3.644 L1.863,5.975 C1.863,6.053 1.906,6.162 1.96,6.218 L6.551,11 C6.60534926,11.0571403 6.60534926,11.1468597 6.551,11.204 L1.961,15.987 C1.90208711,16.0544626 1.86726244,16.1395895 1.862,16.229 L1.862,18.359 L1.862,18.36 Z" id="Shape"></path>
                    </g>
                </g>
            </g>
        </g>
    </g>
</svg>