<?xml version="1.0" encoding="UTF-8"?>
<svg width="20px" height="20px" viewBox="0 0 20 20" version="1.1" xmlns="http://www.w3.org/2000/svg" xmlns:xlink="http://www.w3.org/1999/xlink">
    <!-- Generator: Sketch 53.2 (72643) - https://sketchapp.com -->
    <title>icon-linkedin-black</title>
    <desc>Created with Sketch.</desc>
    <g id="Page-1" stroke="none" stroke-width="1" fill="none" fill-rule="evenodd">
        <g id="News/Blog-Article-Tablet" transform="translate(-88.000000, -2548.000000)" fill="#000000">
            <g id="article-content" transform="translate(16.000000, 125.000000)">
                <g id="Share-this" transform="translate(0.000000, 2392.000000)">
                    <g id="social-icons" transform="translate(0.000000, 31.000000)">
                        <g id="icon-linkedin-black" transform="translate(72.000000, 0.000000)">
                            <path d="M17,17.001 L14,17.001 L14,12.401 C14,11.291 14,9.871 12.46,9.871 C10.92,9.871 10.68,11.081 10.68,12.321 L10.68,17.001 L7.68,17.001 L7.68,7.501 L10.53,7.501 L10.53,8.801 C11.1110683,7.80881738 12.1910325,7.21695088 13.34,7.261 C16.34,7.261 16.9,9.261 16.9,11.811 L16.9,17.001 L17,17.001 L17,17.001 Z M4.45,6.191 C3.50007023,6.191 2.73,5.42092977 2.73,4.471 C2.73,3.52107023 3.50007023,2.751 4.45,2.751 C5.39992977,2.751 6.17,3.52107023 6.17,4.471 C6.17,5.42092977 5.39992977,6.191 4.45,6.191 L4.45,6.191 Z M5.93,17.001 L3,17.001 L3,7.501 L6,7.501 L6,17.001 L5.93,17.001 Z M18.52,0.001 L1.52,0.001 C1.13303274,-0.0149755828 0.755573867,0.123457485 0.470692157,0.385833728 C0.185810446,0.648209971 0.0168519543,1.01302765 0.001,1.4 L0,1.441 L0,18.561 C0.0109725068,19.3669723 0.67302223,20.0115643 1.479,20.001 L18.48,20.001 C19.2854568,20.0342753 19.9654535,19.4084455 19.999,18.603 L20,18.561 L20,1.441 C19.9890275,0.635027684 19.3269778,-0.00956433917 18.521,0.001 L18.52,0.001 L18.52,0.001 Z" id="Shape"></path>
                        </g>
                    </g>
                </g>
            </g>
        </g>
    </g>
</svg>