<?xml version="1.0" encoding="UTF-8"?>
<svg width="21px" height="12px" viewBox="0 0 21 12" version="1.1" xmlns="http://www.w3.org/2000/svg" xmlns:xlink="http://www.w3.org/1999/xlink">
    <!-- Generator: Sketch 53.2 (72643) - https://sketchapp.com -->
    <title>icon-arrow-head-up-white</title>
    <desc>Created with Sketch.</desc>
    <g id="Symbols" stroke="none" stroke-width="1" fill="none" fill-rule="evenodd">
        <g id="modal-nav-tablet" transform="translate(-696.000000, -64.000000)" fill="#FFFFFF">
            <g id="main_navigation">
                <g>
                    <g id="nav-links" transform="translate(33.600000, 36.000000)">
                        <g id="nav-link/desktop" transform="translate(2.400000, 0.000000)">
                            <g id="icon-arrow-head-up-white" transform="translate(659.600000, 28.000000)">
                                <path d="M14.867,15.945 L5.055,6.133 C5.01970404,6.09773798 4.99987212,6.04989204 4.99987212,6 C4.99987212,5.95010796 5.01970404,5.90226202 5.055,5.867 L14.867,-3.945 C14.902262,-3.98029596 14.950108,-4.00012788 15,-4.00012788 C15.049892,-4.00012788 15.097738,-3.98029596 15.133,-3.945 L16.198,-2.88 C16.233296,-2.84473798 16.2531279,-2.79689204 16.2531279,-2.747 C16.2531279,-2.69710796 16.233296,-2.64926202 16.198,-2.614 L7.718,5.866 C7.6823969,5.90130168 7.66236975,5.9493623 7.66236975,5.9995 C7.66236975,6.0496377 7.6823969,6.09769832 7.718,6.133 L16.198,14.613 C16.2336031,14.6483017 16.2536303,14.6963623 16.2536303,14.7465 C16.2536303,14.7966377 16.2336031,14.8446983 16.198,14.88 L15.133,15.945 C15.097738,15.980296 15.049892,16.0001279 15,16.0001279 C14.950108,16.0001279 14.902262,15.980296 14.867,15.945" id="Path" transform="translate(10.626751, 6.000000) rotate(90.000000) translate(-10.626751, -6.000000) "></path>
                            </g>
                        </g>
                    </g>
                </g>
            </g>
        </g>
    </g>
</svg>