<?xml version="1.0" encoding="UTF-8"?>
<svg width="21px" height="20px" viewBox="0 0 21 20" version="1.1" xmlns="http://www.w3.org/2000/svg" xmlns:xlink="http://www.w3.org/1999/xlink">
    <!-- Generator: Sketch 53.2 (72643) - https://sketchapp.com -->
    <title>icon-calendar-blue</title>
    <desc>Created with Sketch.</desc>
    <g id="Symbols" stroke="none" stroke-width="1" fill="none" fill-rule="evenodd">
        <g id="quick-facts/light/desktop" transform="translate(-251.000000, -20.000000)" fill="#0F4BEB" fill-rule="nonzero">
            <g id="intakes">
                <g transform="translate(251.000000, 20.000000)">
                    <g id="icon-calendar-blue">
                        <path d="M19.3866723,1.68469232 L16.2669779,1.68469232 C16.1857527,1.68469232 16.1199066,1.61970639 16.1199066,1.53954218 L16.1199066,0.145221208 C16.1211576,0.106359646 16.1060647,0.0687184362 16.0782077,0.0412252973 C16.0503507,0.0137321583 16.0122112,-0.00116356863 15.9728353,7.10755019e-05 L14.7962649,7.10755019e-05 C14.7150396,7.10755019e-05 14.6491936,0.0650570036 14.6491936,0.145221208 L14.6491936,1.53954218 C14.6504001,1.57762797 14.635909,1.6145692 14.6090317,1.64192436 C14.5821544,1.66927952 14.5451877,1.68471093 14.5065789,1.68469232 L11.3868846,1.68469232 C11.3056593,1.68469232 11.2398132,1.61970639 11.2398132,1.53954218 L11.2398132,0.145221208 C11.2410198,0.107135422 11.2265287,0.0701941933 11.1996514,0.0428390318 C11.1727741,0.0154838704 11.1358074,5.24651527e-05 11.0971986,7.10755019e-05 L9.91617148,7.10755019e-05 C9.87679556,-0.00116356863 9.83865614,0.0137321583 9.8107991,0.0412252973 C9.78294207,0.0687184362 9.76784919,0.106359646 9.76910017,0.145221208 L9.76910017,1.53954218 C9.76910017,1.61970639 9.70325411,1.68469232 9.62202887,1.68469232 L6.50233447,1.68469232 C6.42110923,1.68469232 6.35526316,1.61970639 6.35526316,1.53954218 L6.35526316,0.145221208 C6.35526316,0.0650570036 6.2894171,7.10755019e-05 6.20819186,7.10755019e-05 L5.0316214,7.10755019e-05 C4.95742633,0.00901083612 4.90182603,0.0714536578 4.90237692,0.145221208 L4.90237692,1.53954218 C4.90237692,1.61970639 4.83653085,1.68469232 4.75530561,1.68469232 L1.63561121,1.68469232 C1.20388229,1.67880654 0.787778122,1.84395934 0.480383765,2.14320501 C0.172989408,2.44245069 -4.11802446e-05,2.85081534 7.35142876e-09,3.27694529 L7.35142876e-09,19.8548499 C7.35142877e-09,19.9350141 0.0658460745,20 0.147071315,20 L20.8529287,20 C20.9341539,20 21,19.9350141 21,19.8548499 L21,3.27694529 C21,2.39756825 20.2776886,1.68469232 19.3866723,1.68469232 L19.3866723,1.68469232 Z M19.5337436,18.39895 C19.5337436,18.4374463 19.5182487,18.4743658 19.4906674,18.5015867 C19.4630862,18.5288076 19.4256781,18.5441002 19.3866723,18.5441002 L1.61332768,18.5441002 C1.53210244,18.5441002 1.46625637,18.4791143 1.46625637,18.39895 L1.46625637,8.0976891 C1.46625637,8.05919289 1.48175134,8.02227339 1.50933256,7.99505246 C1.53691378,7.96783152 1.57432194,7.95253897 1.61332768,7.95253897 L2.29520374,7.95253897 C2.37642898,7.95253897 2.44227505,8.01752489 2.44227505,8.0976891 L2.44227505,17.4488765 C2.44225619,17.4869808 2.45789184,17.5234646 2.48560907,17.5499909 C2.5133263,17.5765171 2.55075647,17.5908189 2.58934636,17.5896281 L18.4106537,17.5896281 C18.4492435,17.5908189 18.4866737,17.5765171 18.5143909,17.5499909 C18.5421082,17.5234646 18.5577438,17.4869808 18.557725,17.4488765 L18.557725,8.0976891 C18.557725,8.01752489 18.623571,7.95253897 18.7047963,7.95253897 L19.3866723,7.95253897 C19.4678976,7.95253897 19.5337436,8.01752489 19.5337436,8.0976891 L19.5337436,18.39895 Z M4.05560272,12.7732828 L7.17529712,12.7732828 C7.213887,12.772092 7.25131717,12.7863938 7.2790344,12.81292 C7.30675163,12.8394462 7.32238728,12.87593 7.32236843,12.9140344 L7.32236843,15.9929766 C7.32236843,16.0731408 7.25652236,16.1381268 7.17529712,16.1381268 L4.05560272,16.1381268 C4.01659699,16.1381268 3.97918882,16.1228342 3.9516076,16.0956133 C3.92402638,16.0683923 3.90853142,16.0314728 3.90853142,15.9929766 L3.90853142,12.9140344 C3.90851256,12.87593 3.92414821,12.8394462 3.95186544,12.81292 C3.97958267,12.7863938 4.01701284,12.772092 4.05560272,12.7732828 L4.05560272,12.7732828 Z M3.90853142,11.1810298 L3.90853142,8.10208759 C3.90853142,8.06359138 3.92402638,8.02667187 3.9516076,7.99945094 C3.97918882,7.97223001 4.01659699,7.95693745 4.05560272,7.95693745 L7.17529712,7.95693745 C7.25652236,7.95693745 7.32236843,8.02192338 7.32236843,8.10208759 L7.32236843,11.1810298 C7.32236843,11.261194 7.25652236,11.3261799 7.17529712,11.3261799 L4.05560272,11.3261799 C4.01659699,11.3261799 3.97918882,11.3108874 3.9516076,11.2836664 C3.92402638,11.2564455 3.90853142,11.219526 3.90853142,11.1810298 L3.90853142,11.1810298 Z M8.9356961,12.7732828 L12.0553905,12.7732828 C12.0939804,12.772092 12.1314106,12.7863938 12.1591278,12.81292 C12.186845,12.8394462 12.2024807,12.87593 12.2024618,12.9140344 L12.2024618,15.9929766 C12.2024618,16.0731408 12.1366157,16.1381268 12.0553905,16.1381268 L8.9356961,16.1381268 C8.89708737,16.1381454 8.86012068,16.122714 8.83324337,16.0953588 C8.80636606,16.0680036 8.79187497,16.0310624 8.7930815,15.9929766 L8.7930815,12.9140344 C8.7930815,12.8362994 8.85693223,12.7732828 8.9356961,12.7732828 L8.9356961,12.7732828 Z M8.7930815,11.1810298 L8.7930815,8.10208759 C8.79187497,8.0640018 8.80636606,8.02706057 8.83324337,7.99970541 C8.86012068,7.97235025 8.89708737,7.95691884 8.9356961,7.95693745 L12.0553905,7.95693745 C12.1366157,7.95693745 12.2024618,8.02192338 12.2024618,8.10208759 L12.2024618,11.1810298 C12.2024618,11.261194 12.1366157,11.3261799 12.0553905,11.3261799 L8.9356961,11.3261799 C8.89708737,11.3261985 8.86012068,11.3107671 8.83324337,11.283412 C8.80636606,11.2560568 8.79187497,11.2191156 8.7930815,11.1810298 L8.7930815,11.1810298 Z M13.8157895,12.7732828 L16.9354839,12.7732828 C17.0142477,12.7732828 17.0780985,12.8362994 17.0780985,12.9140344 L17.0780985,15.9929766 C17.079305,16.0310624 17.0648139,16.0680036 17.0379366,16.0953588 C17.0110593,16.122714 16.9740926,16.1381454 16.9354839,16.1381268 L13.8157895,16.1381268 C13.7345642,16.1381268 13.6687182,16.0731408 13.6687182,15.9929766 L13.6687182,12.9140344 C13.6686993,12.87593 13.684335,12.8394462 13.7120522,12.81292 C13.7397694,12.7863938 13.7771996,12.772092 13.8157895,12.7732828 L13.8157895,12.7732828 Z M13.6687182,11.1810298 L13.6687182,8.10208759 C13.6687182,8.02192338 13.7345642,7.95693745 13.8157895,7.95693745 L16.9354839,7.95693745 C16.9740926,7.95691884 17.0110593,7.97235025 17.0379366,7.99970541 C17.0648139,8.02706057 17.079305,8.0640018 17.0780985,8.10208759 L17.0780985,11.1810298 C17.0818731,11.2205877 17.0685312,11.2598775 17.0413658,11.2892015 C17.0142004,11.3185256 16.9757423,11.3351519 16.9354839,11.3349769 L13.8157895,11.3349769 C13.7345642,11.3349769 13.6687182,11.269991 13.6687182,11.1898268 L13.6687182,11.1810298 Z M19.5292869,6.35148901 C19.5292869,6.43165322 19.4634409,6.49663915 19.3822156,6.49663915 L1.61332768,6.49663915 C1.57432194,6.49663915 1.53691378,6.48134659 1.50933256,6.45412566 C1.48175134,6.42690473 1.46625637,6.38998522 1.46625637,6.35148901 L1.46625637,3.2725468 C1.46625637,3.23405059 1.48175134,3.19713109 1.50933256,3.16991016 C1.53691378,3.14268923 1.57432194,3.12739667 1.61332768,3.12739667 L4.73302208,3.12739667 C4.81424732,3.12739667 4.88009338,3.1923826 4.88009338,3.2725468 L4.88009338,4.67126626 C4.88007453,4.70937066 4.89571018,4.74585445 4.92342741,4.77238067 C4.95114464,4.79890688 4.98857481,4.81320867 5.02716469,4.81201791 L6.19927844,4.81201791 C6.23786832,4.81320867 6.2752985,4.79890688 6.30301573,4.77238067 C6.33073296,4.74585445 6.34636861,4.70937066 6.34634975,4.67126626 L6.34634975,3.27694529 C6.34634975,3.19678108 6.41219582,3.13179516 6.49342106,3.13179516 L9.61311545,3.13179516 C9.69434069,3.13179516 9.76018676,3.19678108 9.76018676,3.27694529 L9.76018676,4.67566475 C9.7601679,4.71376914 9.77580356,4.75025294 9.80352078,4.77677916 C9.83123801,4.80330537 9.86866819,4.81760716 9.90725807,4.8164164 L11.0793718,4.8164164 C11.1581357,4.8164164 11.2219864,4.75339974 11.2219864,4.67566475 L11.2219864,3.27694529 C11.2219864,3.19678108 11.2878325,3.13179516 11.3690577,3.13179516 L14.4887521,3.13179516 C14.5273609,3.13177655 14.5643275,3.14720795 14.5912049,3.17456311 C14.6180822,3.20191827 14.6325733,3.2388595 14.6313667,3.27694529 L14.6313667,4.67566475 C14.6313479,4.71376914 14.6469835,4.75025294 14.6747007,4.77677916 C14.702418,4.80330537 14.7398482,4.81760716 14.778438,4.8164164 L15.9505518,4.8164164 C15.9891417,4.81760716 16.0265718,4.80330537 16.0542891,4.77677916 C16.0820063,4.75025294 16.0976419,4.71376914 16.0976231,4.67566475 L16.0976231,3.27694529 C16.0976231,3.19678108 16.1634692,3.13179516 16.2446944,3.13179516 L19.3643888,3.13179516 C19.445614,3.13179516 19.5114601,3.19678108 19.5114601,3.27694529 L19.5292869,6.35148901 Z" id="Shape"></path>
                    </g>
                </g>
            </g>
        </g>
    </g>
</svg>