<?xml version="1.0" encoding="UTF-8"?>
<svg width="40px" height="40px" viewBox="0 0 40 40" version="1.1" xmlns="http://www.w3.org/2000/svg" xmlns:xlink="http://www.w3.org/1999/xlink">
    <!-- Generator: Sketch 59.1 (86144) - https://sketch.com -->
    <title>icon-online-training-blue@1x</title>
    <desc>Created with Sketch.</desc>
    <g id="Page-1" stroke="none" stroke-width="1" fill="none" fill-rule="evenodd">
        <g id="Home-Desktop" transform="translate(-113.000000, -1014.000000)" fill="#0F4BEB" fill-rule="nonzero">
            <g id="VPs-intro-section" transform="translate(0.000000, 567.000000)">
                <g id="value-props" transform="translate(88.000000, 0.000000)">
                    <g id="value-prop-copy-2" transform="translate(25.000000, 447.000000)">
                        <g id="icon-online-training-blue">
                            <path d="M27.1604687,0.0776952366 C27.375,-0.0258984122 27.6250781,-0.0258984122 27.8396094,0.0776952366 L27.8396094,0.0776952366 L39.5583594,5.73347096 C39.5625781,5.73558034 39.5660156,5.73776783 39.5698437,5.73987721 C39.8247656,5.86847083 40,6.13206432 40,6.43706403 L40,6.43706403 L40,11.2490906 C40,11.6804964 39.6501562,12.0303398 39.21875,12.0303398 C38.7873437,12.0303398 38.4375,11.6805745 38.4375,11.2490906 L38.4375,11.2490906 L38.4375,7.68159406 L34.9910156,9.34495181 L34.9910156,14.1769783 C34.9910156,14.2136971 34.9880469,14.2497908 34.9830469,14.2854157 L34.9830469,14.2854157 L35.2001562,14.2854157 C36.635625,14.2854157 37.8035156,15.4533052 37.8035156,16.8888507 C37.8035156,18.324318 36.635625,19.4922075 35.2001562,19.4922075 L35.2001562,19.4922075 L34.9478125,19.4922075 C34.5563281,23.1442352 31.5297656,26.018998 27.8125,26.1723573 L27.8125,26.1723573 L27.8125,28.6739954 C27.8125,29.1054013 27.4626562,29.4552447 27.03125,29.4552447 L27.03125,29.4552447 L3.28101562,29.4552447 L3.28101562,33.2812566 L36.7185156,33.2812566 L36.7185156,21.7968928 C36.7185156,21.3654869 37.0683594,21.0156435 37.4997656,21.0156435 C37.9311719,21.0156435 38.2810156,21.3654869 38.2810156,21.7968928 L38.2810156,21.7968928 L38.2810156,33.2812566 L39.21875,33.2812566 C39.6501562,33.2812566 40,33.6311 40,34.0625058 L40,34.0625058 L40,35.4687544 C40,37.9672676 37.9672656,40 35.46875,40 L35.46875,40 L4.53125,40 C2.03273437,40 0,37.9672676 0,35.4687544 L0,35.4687544 L0,34.0625058 C0,33.6311 0.34984375,33.2812566 0.78125,33.2812566 L0.78125,33.2812566 L1.71851562,33.2812566 L1.71851562,29.4553228 L0.78125,29.4553228 C0.34984375,29.4553228 0,29.1054794 0,28.6740736 L0,28.6740736 L0,11.5636215 C0,11.1322157 0.34984375,10.7823723 0.78125,10.7823723 L0.78125,10.7823723 L11.8529687,10.7823723 C12.6604687,10.7823723 13.3895312,11.1222938 13.9063281,11.665887 C14.423125,11.1222938 15.1521875,10.7823723 15.9596875,10.7823723 L15.9596875,10.7823723 L17.9778125,10.7823723 C18.4092187,10.7823723 18.7590625,11.1322157 18.7590625,11.5636215 C18.7590625,11.9950273 18.4092187,12.3448708 17.9778125,12.3448708 L17.9778125,12.3448708 L15.9596875,12.3448708 C15.2582812,12.3448708 14.6875781,12.9154952 14.6875781,13.6169789 L14.6875781,13.6169789 L14.6875781,25.1466551 C15.0703125,24.9536866 15.5025,24.8448585 15.9596875,24.8448585 L15.9596875,24.8448585 L23.2376562,24.8448585 C21.4959375,23.6352504 20.2896875,21.7067366 20.0522656,19.4922075 L20.0522656,19.4922075 L19.7999219,19.4922075 C18.3644531,19.4922075 17.1965625,18.324318 17.1965625,16.8888507 C17.1965625,15.4533052 18.3644531,14.2854157 19.7999219,14.2854157 L19.7999219,14.2854157 L20.0170312,14.2854157 C20.0120312,14.2497908 20.0090625,14.2136189 20.0090625,14.1769783 L20.0090625,14.1769783 L20.0090625,9.34495181 L15.4417187,7.14065709 C15.1717187,7.01034472 15.0000781,6.73690748 15.0000781,6.43706403 C15.0000781,6.13722057 15.1717187,5.86378334 15.4417187,5.73347096 L15.4417187,5.73347096 Z M38.4375,34.843755 L1.5625,34.843755 L1.5625,35.4687544 C1.5625,37.105706 2.89429688,38.4375015 4.53125,38.4375015 L4.53125,38.4375015 L35.46875,38.4375015 C37.1057031,38.4375015 38.4375,37.105706 38.4375,35.4687544 L38.4375,35.4687544 L38.4375,34.843755 Z M21.2207711,36 C21.6511392,36 22,36.2239 22,36.5 C22,36.7761 21.6510613,37 21.2207711,37 L21.2207711,37 L17.7792289,37 C17.3489387,37 17,36.7761 17,36.5 C17,36.2239 17.3489387,36 17.7792289,36 L17.7792289,36 Z M11.8528906,26.407357 L1.5625,26.407357 L1.5625,27.8927462 L13.1552344,27.8927462 C13.1360156,27.8249338 13.125,27.7535276 13.125,27.6794652 C13.125,26.9780596 12.554375,26.407357 11.8528906,26.407357 L11.8528906,26.407357 Z M26.25,26.4074351 L15.9596094,26.4074351 C15.2582031,26.4074351 14.6875,26.9780596 14.6875,27.6795433 C14.6875,27.7535276 14.6765625,27.8249338 14.6572656,27.8928243 L14.6572656,27.8928243 L26.25,27.8929024 L26.25,26.4074351 Z M11.8528906,12.3448708 L1.5625,12.3448708 L1.5625,24.8448585 L11.8528906,24.8448585 C12.31,24.8448585 12.7422656,24.9536084 13.125,25.1466551 L13.125,25.1466551 L13.125,13.6169789 C13.125,12.9155733 12.554375,12.3448708 11.8528906,12.3448708 L11.8528906,12.3448708 Z M33.4283594,15.3743209 L27.8145312,17.8441623 C27.7142969,17.8883028 27.6071094,17.9103341 27.4999219,17.9103341 C27.3927344,17.9103341 27.2855469,17.8882247 27.1853125,17.8441623 L27.1853125,17.8441623 L21.5714844,15.3743209 L21.5714844,18.6883802 C21.5714844,21.9574395 24.2310156,24.6169681 27.5,24.6169681 C30.7689844,24.6169681 33.4285156,21.9574395 33.4283594,18.6883802 L33.4283594,18.6883802 L33.4283594,15.3743209 Z M10.5,20 C10.6315,20 10.76,20.0535 10.8535,20.1465 C10.94655,20.2395 11,20.3685 11,20.5 C11,20.63195 10.9465,20.7605 10.8535,20.85345 C10.7605,20.94695 10.6315,21 10.5,21 C10.36805,21 10.2395,20.94695 10.14655,20.85345 C10.05305,20.7605 10,20.6315 10,20.5 C10,20.3685 10.05305,20.24 10.14655,20.1465 C10.2395,20.05345 10.3685,20 10.5,20 Z M6.23076923,20 C6.65561538,20 7,20.2239 7,20.5 C7,20.7761 6.65553846,21 6.23076923,21 L6.23076923,21 L3.76923077,21 C3.34446154,21 3,20.7761 3,20.5 C3,20.2239 3.34446154,20 3.76923077,20 L3.76923077,20 Z M20.0089844,15.8479923 L19.7998438,15.8479923 C19.2259375,15.8479923 18.7589844,16.314945 18.7589844,16.8889288 C18.7589844,17.4629126 19.2259375,17.9297872 19.7998438,17.9297872 L19.7998438,17.9297872 L20.0089844,17.9297872 L20.0089844,15.8479923 Z M35.2001562,15.8479142 L34.9910156,15.8479142 L34.9910156,17.9297091 L35.2001562,17.9297091 C35.7740625,17.9297091 36.2410156,17.4628345 36.2410156,16.8888507 C36.2410156,16.314945 35.7740625,15.8479142 35.2001562,15.8479142 L35.2001562,15.8479142 Z M10.3319006,16 C10.7008251,16 11,16.2239 11,16.5 C11,16.7761 10.7008251,17 10.3319006,17 L10.3319006,17 L5.66809937,17 C5.2991749,17 5,16.7761 5,16.5 C5,16.2239 5.2991749,16 5.66809937,16 L5.66809937,16 Z M33.4285156,10.0990917 L27.8396094,12.7964328 C27.7323437,12.8482296 27.6161719,12.874089 27.5,12.874089 C27.3838281,12.874089 27.2676562,12.8482296 27.1603906,12.7964328 L27.1603906,12.7964328 L21.5714844,10.0990917 L21.5714844,13.6672132 L27.5,16.2754919 L33.4285156,13.6672913 L33.4285156,10.0990917 Z M39.5,14 C39.6315,14 39.7605,14.05355 39.85345,14.1465 C39.9465,14.23955 40,14.3685 40,14.5 C40,14.6315 39.94645,14.7605 39.85345,14.8535 C39.7605,14.9465 39.6315,15 39.5,15 C39.3685,15 39.2395,14.94645 39.1465,14.8535 C39.05345,14.7605 39,14.6315 39,14.5 C39,14.3685 39.0535,14.2395 39.1465,14.1465 C39.2395,14.0535 39.3685,14 39.5,14 Z M27.5,1.64878745 L17.5786719,6.43714215 L27.5,11.2254187 L35.8025781,7.21831326 L29.6972656,7.21831326 C29.2658594,7.21831326 28.9160156,6.86854798 28.9160156,6.43706403 C28.9160156,6.0056582 29.2658594,5.65581479 29.6972656,5.65581479 L29.6972656,5.65581479 L35.8025781,5.65581479 L27.5,1.64878745 Z M27.5,7 C27.6315,7 27.7605,7.05355 27.85345,7.1465 C27.9465,7.23995 28,7.3685 28,7.5 C28,7.6315 27.94645,7.7605 27.85345,7.8535 C27.76045,7.94705 27.6315,8 27.5,8 C27.3685,8 27.2395,7.947 27.1465,7.8535 C27.05345,7.7605 27,7.63205 27,7.5 C27,7.3685 27.0535,7.2395 27.1465,7.1465 C27.2395,7.0535 27.3685,7 27.5,7 Z" id="Combined-Shape"></path>
                        </g>
                    </g>
                </g>
            </g>
        </g>
    </g>
</svg>