<?xml version="1.0" encoding="UTF-8"?>
<svg width="29px" height="34px" viewBox="0 0 29 34" version="1.1" xmlns="http://www.w3.org/2000/svg" xmlns:xlink="http://www.w3.org/1999/xlink">
    <!-- Generator: Sketch 53.2 (72643) - https://sketchapp.com -->
    <title>icon-uts-handbook-white</title>
    <desc>Created with Sketch.</desc>
    <g id="Symbols" stroke="none" stroke-width="1" fill="none" fill-rule="evenodd">
        <g id="form/desktop/step1" transform="translate(-24.000000, -22.000000)" fill="#FFFFFF" fill-rule="nonzero">
            <g id="form-intro">
                <g>
                    <g id="icon-uts-handbook-white" transform="translate(24.000000, 22.000000)">
                        <polygon id="Path" points="12 14 12 19 13.5480226 19 13.5480226 17.3479693 20 17.3479693 20 15.6520307 13.5480226 15.6520307 13.5480226 14"></polygon>
                        <g id="Group">
                            <path d="M17.7752941,24.4281356 L12.2084314,24.4281356 L12.2084314,26.2088136 L17.7980392,26.2088136 C19.3958824,26.2088136 20.3852941,25.0908475 20.3852941,23.4369492 C20.3852941,21.7830508 19.3958824,20.6650847 17.7980392,20.6650847 L12.2084314,20.6650847 L12.2084314,22.4745763 L17.7752941,22.4745763 C18.1247139,22.4745763 18.4475911,22.6634953 18.622301,22.9701695 C18.7970109,23.2768436 18.7970109,23.6546818 18.622301,23.9613559 C18.4475911,24.2680301 18.1247139,24.4569492 17.7752941,24.4569492" id="Path"></path>
                            <path d="M14.4772549,9.09932203 L14.6990196,9.09932203 L14.6990196,7.43389831 L14.5170588,7.43389831 C13.0215686,7.43389831 12.0890196,8.47694915 12.0890196,10.0328814 C12.0385757,10.6919391 12.2602102,11.3426663 12.7010623,11.8298622 C13.1419145,12.317058 13.7624633,12.597047 14.4147059,12.6030508 C15.5917647,12.6030508 16.2911765,11.980678 16.7347059,10.799322 L17.1611765,9.64677966 C17.3601961,9.13966102 17.627451,8.9379661 18.0311765,8.9379661 C18.5998039,8.9379661 18.9296078,9.31254237 18.9296078,9.98101695 C18.9296078,10.6494915 18.622549,11.0644068 17.9686275,11.0644068 L17.6786275,11.0644068 L17.6786275,12.7413559 L17.9572549,12.7413559 C19.4527451,12.7413559 20.3852941,11.5888136 20.3852941,9.98101695 C20.3852941,8.25220339 19.3447059,7.24949153 17.8605882,7.24949153 C16.3764706,7.24949153 15.8647059,8.21762712 15.4837255,9.23762712 L15.1027451,10.2576271 C15.0288018,10.647967 14.6986066,10.9347959 14.3066667,10.9491525 C14.0820265,10.9494644 13.8681883,10.8514846 13.7200303,10.6803582 C13.5718723,10.5092319 13.5038183,10.2816187 13.5333333,10.0559322 C13.5194047,9.80017565 13.6151959,9.55079318 13.7960819,9.37189286 C13.976968,9.19299254 14.2253055,9.10202422 14.4772549,9.12237288" id="Path"></path>
                            <path d="M28.7896078,-6.6174449e-24 L2.3654902,-6.6174449e-24 C2.31622963,-2.4382483e-05 2.26906415,0.0201931842 2.23477161,0.0560327459 C2.20047907,0.0918723076 2.18199001,0.140271124 2.18352941,0.190169492 L2.18352941,6.12576271 C2.18352941,6.1761988 2.16375951,6.22456915 2.12856886,6.26023285 C2.09337821,6.29589655 2.04564945,6.3159322 1.99588235,6.3159322 L0.187647059,6.3159322 C0.0840124499,6.3159322 1.26915792e-17,6.40107398 0,6.50610169 L0,8.02169492 C1.26915792e-17,8.12672263 0.0840124499,8.21186441 0.187647059,8.21186441 L6.0445098,8.21186441 C6.14814441,8.21186441 6.23215686,8.12672263 6.23215686,8.02169492 L6.23215686,6.50610169 C6.23215686,6.40107398 6.14814441,6.3159322 6.0445098,6.3159322 L4.23627451,6.3159322 C4.1326399,6.3159322 4.04862745,6.23079042 4.04862745,6.12576271 L4.04862745,2.09186441 C4.04862745,1.9868367 4.1326399,1.90169492 4.23627451,1.90169492 L26.9188235,1.90169492 C27.0224581,1.90169492 27.1064706,1.9868367 27.1064706,2.09186441 L27.1064706,31.3837288 C27.1064706,31.4887565 27.0224581,31.5738983 26.9188235,31.5738983 L4.23627451,31.5738983 C4.1326399,31.5738983 4.04862745,31.4887565 4.04862745,31.3837288 L4.04862745,28.5023729 C4.04862745,28.3973452 3.964615,28.3122034 3.86098039,28.3122034 L2.3654902,28.3122034 C2.31622963,28.312179 2.26906415,28.3323966 2.23477161,28.3682361 C2.20047907,28.4040757 2.18199001,28.4524745 2.18352941,28.5023729 L2.18352941,33.3027119 C2.18199001,33.3526102 2.20047907,33.401009 2.23477161,33.4368486 C2.26906415,33.4726882 2.31622963,33.4929057 2.3654902,33.4928814 L28.7896078,33.4928814 C28.8932425,33.4928814 28.9772549,33.4077396 28.9772549,33.3027119 L28.9772549,0.190169492 C28.9772549,0.0851417815 28.8932425,6.43108773e-18 28.7896078,-6.6174449e-24" id="Path"></path>
                            <path d="M0.187647059,17.68 L6.0445098,17.68 C6.14814441,17.68 6.23215686,17.5948582 6.23215686,17.4898305 L6.23215686,15.9742373 C6.23215686,15.8692096 6.14814441,15.7840678 6.0445098,15.7840678 L4.23627451,15.7840678 C4.187038,15.7856279 4.13928115,15.7668903 4.10391697,15.7321368 C4.06855279,15.6973833 4.04860339,15.6495838 4.04862745,15.599661 L4.04862745,9.53728814 C4.05022357,9.48637338 4.03096669,9.43705748 3.99542413,9.40103714 C3.95988158,9.36501681 3.91121981,9.34550107 3.86098039,9.34711864 L2.3654902,9.34711864 C2.31622963,9.34709426 2.26906415,9.36731183 2.23477161,9.40315139 C2.20047907,9.43899095 2.18199001,9.48738977 2.18352941,9.53728814 L2.18352941,15.599661 C2.18355347,15.6495838 2.16360407,15.6973833 2.12823989,15.7321368 C2.09287571,15.7668903 2.04511886,15.7856279 1.99588235,15.7840678 L0.187647059,15.7840678 C0.0840124499,15.7840678 1.26915792e-17,15.8692096 0,15.9742373 L0,17.4898305 C1.26915792e-17,17.5948582 0.0840124499,17.68 0.187647059,17.68" id="Path"></path>
                            <path d="M6.25490196,26.9637288 L6.25490196,25.4481356 C6.25490196,25.3431079 6.17088951,25.2579661 6.0672549,25.2579661 L4.23627451,25.2579661 C4.1326399,25.2579661 4.04862745,25.1728243 4.04862745,25.0677966 L4.04862745,19.0169492 C4.04865151,18.9670264 4.02870211,18.9192269 3.99333793,18.8844734 C3.95797375,18.8497199 3.9102169,18.8309823 3.86098039,18.8325424 L2.3654902,18.8325424 C2.26499603,18.8325424 2.18352941,18.9151041 2.18352941,19.0169492 L2.18352941,25.0677966 C2.18352941,25.1182327 2.16375951,25.166603 2.12856886,25.2022667 C2.09337821,25.2379304 2.04564945,25.2579661 1.99588235,25.2579661 L0.187647059,25.2579661 C0.0840124499,25.2579661 1.26915792e-17,25.3431079 0,25.4481356 L0,26.9637288 C1.26915792e-17,27.0687565 0.0840124499,27.1538983 0.187647059,27.1538983 L6.0445098,27.1538983 C6.14814441,27.1538983 6.23215686,27.0687565 6.23215686,26.9637288" id="Path"></path>
                        </g>
                    </g>
                </g>
            </g>
        </g>
    </g>
</svg>