<?xml version="1.0" encoding="UTF-8"?>
<svg width="18px" height="18px" viewBox="0 0 18 18" version="1.1" xmlns="http://www.w3.org/2000/svg" xmlns:xlink="http://www.w3.org/1999/xlink">
    <!-- Generator: Sketch 53.2 (72643) - https://sketchapp.com -->
    <title>icon-close-x-white</title>
    <desc>Created with Sketch.</desc>
    <g id="Symbols" stroke="none" stroke-width="1" fill="none" fill-rule="evenodd">
        <g id="modal-nav-tablet" transform="translate(-732.000000, -15.000000)" fill="#FFFFFF">
            <g id="main_navigation">
                <g>
                    <g id="icon-close-x-white" transform="translate(732.000000, 15.000000)">
                        <path d="M17.941,1.195 L16.805,0.06 C16.7261915,-0.0184395292 16.5988085,-0.0184395292 16.52,0.06 L9.142,7.437 C9.10440852,7.47517157 9.05307413,7.49666558 8.9995,7.49666558 C8.94592587,7.49666558 8.89459148,7.47517157 8.857,7.437 L1.48,0.059 C1.40119147,-0.0194395292 1.27380853,-0.0194395292 1.195,0.059 L0.06,1.195 C-0.0184395292,1.27380853 -0.0184395292,1.40119147 0.06,1.48 L7.438,8.858 C7.47586253,8.89555332 7.49715966,8.94667249 7.49715966,9 C7.49715966,9.05332751 7.47586253,9.10444668 7.438,9.142 L0.059,16.52 C-0.0194395292,16.5988085 -0.0194395292,16.7261915 0.059,16.805 L1.195,17.941 C1.27380853,18.0194395 1.40119147,18.0194395 1.48,17.941 L8.857,10.563 C8.93580853,10.4845605 9.06319147,10.4845605 9.142,10.563 L16.52,17.941 C16.5988085,18.0194395 16.7261915,18.0194395 16.805,17.941 L17.941,16.805 C18.0194395,16.7261915 18.0194395,16.5988085 17.941,16.52 L10.563,9.142 C10.5251375,9.10444668 10.5038403,9.05332751 10.5038403,9 C10.5038403,8.94667249 10.5251375,8.89555332 10.563,8.858 L17.941,1.48 C18.0194395,1.40119147 18.0194395,1.27380853 17.941,1.195" id="Path"></path>
                    </g>
                </g>
            </g>
        </g>
    </g>
</svg>