<?xml version="1.0" encoding="UTF-8"?>
<svg width="18px" height="16px" viewBox="0 0 18 16" version="1.1" xmlns="http://www.w3.org/2000/svg" xmlns:xlink="http://www.w3.org/1999/xlink">
    <!-- Generator: Sketch 53.2 (72643) - https://sketchapp.com -->
    <title>icon-arrow-right</title>
    <desc>Created with Sketch.</desc>
    <g id="Symbols" stroke="none" stroke-width="1" fill="none" fill-rule="evenodd">
        <g id="form/desktop/step2" transform="translate(-197.000000, -363.000000)" fill="#000000" fill-rule="nonzero">
            <g id="form/desktop/step1">
                <g id="form-fields" transform="translate(0.000000, 159.000000)">
                    <g id="btn/red-white" transform="translate(76.000000, 190.000000)">
                        <g id="icon-arrow-right" transform="translate(121.000000, 14.000000)">
                            <path d="M17.9560976,7.79555556 L10.3478049,0.0933333333 C10.3205781,0.0653752773 10.2834156,0.0496349586 10.2446341,0.0496349586 C10.2058527,0.0496349586 10.1686902,0.0653752773 10.1414634,0.0933333333 L9.31609756,0.928888889 C9.28848045,0.956451803 9.27293209,0.994073084 9.27293209,1.03333333 C9.27293209,1.07259358 9.28848045,1.11021486 9.31609756,1.13777778 L15.0234146,6.91555556 C15.0636448,6.95743545 15.0754888,7.01949107 15.0535656,7.07352836 C15.0316423,7.12756566 14.9801326,7.16327974 14.922439,7.16444444 L0.144878046,7.16444444 C0.0648641095,7.16444444 -2.37544935e-09,7.23010935 -2.37544936e-09,7.31111111 L-2.37544936e-09,8.48888889 C-3.49379573e-05,8.57063995 0.0641588743,8.63759556 0.144878046,8.64 L14.9268293,8.64 C14.9845228,8.64116471 15.0360326,8.67687878 15.0579558,8.73091608 C15.079879,8.78495338 15.068035,8.84700899 15.0278049,8.88888889 L9.3204878,14.6666667 C9.2928707,14.6942296 9.27732233,14.7318509 9.27732233,14.7711111 C9.27732233,14.8103714 9.2928707,14.8479926 9.3204878,14.8755556 L10.1458537,15.7155556 C10.1730804,15.7435136 10.2102429,15.7592539 10.2490244,15.7592539 C10.2878059,15.7592539 10.3249683,15.7435136 10.3521951,15.7155556 L17.9560976,8 C17.9837147,7.97243709 17.999263,7.9348158 17.999263,7.89555556 C17.999263,7.85629531 17.9837147,7.81867403 17.9560976,7.79111111" id="Path"></path>
                        </g>
                    </g>
                </g>
            </g>
        </g>
    </g>
</svg>