<?xml version="1.0" encoding="UTF-8"?>
<svg width="40px" height="40px" viewBox="0 0 40 40" version="1.1" xmlns="http://www.w3.org/2000/svg" xmlns:xlink="http://www.w3.org/1999/xlink">
    <!-- Generator: Sketch 59.1 (86144) - https://sketch.com -->
    <title>icon-network-blue@1x</title>
    <desc>Created with Sketch.</desc>
    <g id="Page-1" stroke="none" stroke-width="1" fill="none" fill-rule="evenodd">
        <g id="Home-Desktop" transform="translate(-112.000000, -1188.000000)" fill="#0F4BEB" fill-rule="nonzero">
            <g id="VPs-intro-section" transform="translate(0.000000, 567.000000)">
                <g id="value-props" transform="translate(88.000000, 0.000000)">
                    <g id="value-prop-copy-3" transform="translate(24.000000, 619.000000)">
                        <g id="icon-network-blue" transform="translate(0.000000, 2.000000)">
                            <path d="M23.3333594,-1.42108547e-14 C26.9934833,-1.42108547e-14 30.0363932,2.6959981 30.5802409,6.20631992 L35.6083826,8.63440788 C36.0736759,8.23888565 36.6760776,8 37.3333594,8 C38.8039844,8 40,9.19601563 40,10.6666406 C40,12.1373438 38.8039844,13.3332813 37.3333594,13.3332813 C35.8627344,13.3332813 34.6667187,12.1372656 34.6667187,10.6666406 C34.6667187,10.3410341 34.7253448,10.0288893 34.8325989,9.74020658 L30.6565062,7.72273253 C30.5513839,9.72207293 29.6415768,11.5118944 28.245749,12.7735327 L31.6721851,17.3405929 C31.7808668,17.3357875 31.8901554,17.3333594 32,17.3333594 C36.0433594,17.3333594 39.3333594,20.6233594 39.3333594,24.6667187 C39.3333594,28.7100781 36.0433594,32.0000781 32,32.0000781 C29.2707324,32.0000781 26.8847142,30.5010719 25.6220813,28.2831953 L22.9398248,30.2950611 C23.1948795,31.039272 23.3333594,31.8370998 23.3333594,32.6666406 C23.3333594,32.7488556 23.3319991,32.8307591 23.3293,32.9123298 L28.2760163,35.3002048 C28.7411735,34.9051866 29.3431857,34.6666406 30,34.6666406 C31.4707031,34.6666406 32.6666406,35.8627344 32.6666406,37.3333594 C32.6666406,38.8039844 31.4707031,40 30,40 C28.5292969,40 27.3333594,38.8039063 27.3333594,37.3332813 C27.3333594,37.0077659 27.3919526,36.6957047 27.4991494,36.4070897 L23.14847,34.3066241 C22.4015631,37.5632401 19.4797718,40 16,40 L16.08,39.998 L16,40 C15.973707,40 15.94742,39.9998561 15.9211401,39.9995687 C12.1384962,39.9597396 9.03257839,37.040241 8.69672904,33.3338677 L5.24887712,33.3336276 C4.95207901,34.4824428 3.90709314,35.3332812 2.66664063,35.3332812 C1.19601563,35.3332812 1.33226763e-14,34.1372656 1.33226763e-14,32.6666406 C1.33226763e-14,31.1960156 1.19601563,30 2.66664063,30 C3.9070674,30 4.95203565,30.8508032 5.24885865,31.9995821 L8.69674885,31.9993505 C9.03501912,28.267494 12.1815737,25.3333594 16,25.3333594 C18.7292676,25.3333594 21.1152858,26.83233 22.3779187,29.0501835 L25.0599191,27.0375592 C24.8050278,26.2935563 24.6666406,25.4959818 24.6666406,24.6667187 C24.6666406,21.2538372 27.0106193,18.3776907 30.173135,17.5637207 L27.1802383,13.5744826 C26.235158,14.1591753 25.1480894,14.535308 23.9837864,14.6381264 C23.9749233,14.6381856 23.9662615,14.6389515 23.957598,14.639702 C23.8669008,14.6480774 23.7754791,14.6541172 23.6836206,14.6584586 C23.5670089,14.6638758 23.4502426,14.6667188 23.3333594,14.6667188 L23.6293786,14.6608226 C23.5311833,14.6647409 23.4324978,14.6667187 23.3333594,14.6667187 C23.2342971,14.6667187 23.135687,14.6647439 23.0375664,14.6608316 C23.019519,14.659913 23.0018398,14.6591223 22.9841657,14.6582668 C22.8916623,14.6541553 22.7992219,14.648047 22.7072596,14.6402339 C22.6994603,14.6388628 22.6917977,14.6381846 22.6841364,14.6374943 C19.3918651,14.3480812 16.7168334,11.8724765 16.1230821,8.67537952 L12.9990506,11.3491681 C13.9745725,12.5353763 14.5856316,14.0320468 14.6592174,15.6661849 L18.3682533,18.5586817 C18.8195154,18.2085985 19.3857966,18 20,18 C21.4707031,18 22.6666406,19.1960156 22.6666406,20.6666406 C22.6666406,22.1372656 21.4707031,23.3332812 20,23.3332812 C18.529375,23.3332812 17.3333594,22.1373437 17.3333594,20.6666406 C17.3333594,20.2926355 17.4107093,19.9363914 17.5502571,19.613064 L14.5552147,17.2780907 C13.9859388,20.5033832 11.3012368,23.0086204 7.99076351,23.3041475 C7.96995022,23.3052917 7.94930023,23.3070862 7.92864097,23.3087924 C7.85712099,23.3152034 7.78505166,23.3199619 7.71270891,23.323667 C7.58641338,23.3300243 7.45995494,23.3333594 7.33335937,23.3333594 L7.6213342,23.3277798 C7.52579404,23.331488 7.42979096,23.3333594 7.33335937,23.3333594 C7.23699264,23.3333594 7.14105384,23.3314906 7.04557731,23.3277873 C7.01549069,23.3264168 6.98579722,23.3250472 6.95611857,23.3234952 C6.88253783,23.320032 6.80878287,23.3151623 6.73533026,23.3092052 C6.71542198,23.3069125 6.69577073,23.3052007 6.67612839,23.303409 C2.93949545,22.9707267 -1.42108547e-14,19.8219129 -1.42108547e-14,16 C-1.42108547e-14,12.1814992 2.93424916,9.03489626 6.66620968,8.69672904 L6.66629424,5.24887712 C5.51747908,4.95207901 4.66664062,3.90709314 4.66664062,2.66664063 C4.66664062,1.19601563 5.86265625,1.33226763e-14 7.33335937,1.33226763e-14 C8.80398437,1.33226763e-14 10,1.19601563 9.99992187,2.66664063 C9.99992187,3.90736643 9.14867364,4.95262989 7.99935183,5.2491156 L7.99971979,8.69665862 C9.53875501,8.83595362 10.9421757,9.45288588 12.0601284,10.3976157 L16.0065853,7.02055038 C16.1710377,3.12167814 19.3947904,-1.42108547e-14 23.3333594,-1.42108547e-14 Z M30,36 C29.2646875,36 28.6666406,36.5978906 28.6666406,37.3332813 C28.6666406,38.0686719 29.2646875,38.6666406 30,38.6666406 C30.7353125,38.6666406 31.3333594,38.06875 31.3333594,37.3333594 C31.3333594,36.5979688 30.7353125,36 30,36 Z M17.9339062,36 L14.0659375,36 C13.6619531,36 13.3332812,36.3039844 13.3332812,36.6773438 L13.3332812,36.6773438 L13.3332812,38.0366406 C14.9926562,38.8632813 17.0072656,38.8632813 18.6666406,38.0366406 L18.6665625,38.0366406 L18.6665625,36.6773438 C18.6665625,36.3039844 18.3378906,36 17.9339062,36 L17.9339062,36 Z M16,26.6666406 C12.6913281,26.6666406 10,29.3579687 10,32.6666406 C10,34.4400386 10.7731641,36.0360862 12.0001451,37.1354364 L12,36.6766406 C12,35.5686719 12.9267187,34.6666406 14.0660156,34.6666406 L14.0660156,34.6666406 L17.9339844,34.6666406 C19.0733594,34.6666406 20,35.5686719 20,36.6773438 L20,36.6773438 L20.0008553,37.1345398 C21.2272562,36.0352186 22,34.4395566 22,32.6666406 C22,29.3579687 19.3086719,26.6666406 16,26.6666406 Z M2.66664063,31.3332812 C1.93125,31.3332812 1.33328125,31.93125 1.33328125,32.6666406 C1.33328125,33.4020312 1.93132813,34 2.66664063,34 C3.40203125,34 4,33.4020312 4,32.6666406 L4,32.673 C4,32.6642467 4.00001259,32.6618557 4.00003772,32.6594677 C3.99615085,31.927409 3.39958769,31.3332812 2.66664063,31.3332812 Z M16,28 C17.4707031,28 18.6666406,29.1960156 18.6666406,30.6666406 C18.6666406,32.1372656 17.470625,33.3332812 16,33.3332812 C14.529375,33.3332812 13.3333594,32.1373437 13.3333594,30.6666406 C13.3333594,29.1960156 14.5292969,28 16,28 Z M16,29.3332812 C15.2646094,29.3332812 14.6666406,29.9313281 14.6666406,30.6666406 C14.6666406,31.4020312 15.2646875,32 16,32 C16.7353125,32 17.3333594,31.4020312 17.3333594,30.6666406 C17.3333594,29.93125 16.7353125,29.3332812 16,29.3332812 Z M33.9339062,28 L30.0659375,28 C29.6619531,28 29.3332812,28.3039844 29.3332812,28.6773438 L29.3332812,28.6773438 L29.3332812,30.0366406 C30.9926562,30.8632813 33.0073437,30.8632813 34.6666406,30.0366406 L34.6665625,30.0366406 L34.6665625,28.6773438 C34.6665625,28.3039844 34.3378906,28 33.9339062,28 L33.9339062,28 Z M32,18.6666406 C28.6913281,18.6666406 26,21.3579687 26,24.6666406 C26,26.4400386 26.7731641,28.0360862 28.0001451,29.1354364 L28,28.6766406 C28,27.5686719 28.9267187,26.6666406 30.0660156,26.6666406 L30.0660156,26.6666406 L33.9339844,26.6666406 C35.0733594,26.6666406 36,27.5686719 36,28.6773438 L36,28.6773438 L36.0008553,29.1345398 C37.2272562,28.0352186 38,26.4395566 38,24.6666406 C38,21.3579687 35.3086719,18.6666406 32,18.6666406 Z M32,20 C33.4707031,20 34.6666406,21.1960156 34.6666406,22.6666406 C34.6666406,24.1372656 33.4707031,25.3332812 32,25.3332812 C30.529375,25.3332812 29.3333594,24.1373437 29.3333594,22.6666406 C29.3333594,21.1960156 30.5292969,20 32,20 Z M32,21.3332812 C31.2646094,21.3332812 30.6666406,21.9313281 30.6666406,22.6666406 C30.6666406,23.4020312 31.2646875,24 32,24 C32.7353125,24 33.3333594,23.4020312 33.3333594,22.6666406 C33.3333594,21.93125 32.7353125,21.3332812 32,21.3332812 Z M20,19.3332812 C19.2646094,19.3332812 18.6666406,19.9313281 18.6666406,20.6666406 C18.6666406,21.4020312 19.2646875,22 20,22 C20.7353125,22 21.3333594,21.4020312 21.3333594,20.6666406 C21.3333594,19.93125 20.7353125,19.3332812 20,19.3332812 Z M9.26726562,19.3333594 L5.39929687,19.3333594 C4.9953125,19.3333594 4.66664062,19.6373437 4.66664062,20.0107031 L4.66664062,20.0107031 L4.66664062,21.37 C6.32601562,22.1966406 8.34070312,22.1966406 10,21.37 L9.99992187,21.37 L9.99992187,20.0107031 C9.99992187,19.6373437 9.67125,19.3333594 9.26726562,19.3333594 L9.26726562,19.3333594 Z M7.33335937,10 C4.0246875,10 1.33335937,12.6913281 1.33335937,16 C1.33335937,17.7731959 2.10634722,19.3690818 3.33308496,20.4684198 L3.33335937,20.01 C3.33335937,18.9020312 4.26007812,18 5.399375,18 L5.399375,18 L9.26734375,18 C10.4066406,18 11.3333594,18.9020312 11.3333594,20.0107031 L11.3333594,20.0107031 L11.3342147,20.4678992 C12.5606155,19.368578 13.3333594,17.772916 13.3333594,16 C13.3333594,12.6913281 10.6420312,10 7.33335937,10 Z M7.33335937,11.3333594 C8.80398437,11.3333594 10,12.529375 10,14 C10,15.470625 8.8040625,16.6666406 7.33335937,16.6666406 C5.86273437,16.6666406 4.66671875,15.470625 4.66671875,14 C4.66671875,12.529375 5.86265625,11.3333594 7.33335937,11.3333594 Z M7.33335937,12.6666406 C6.59796875,12.6666406 6,13.2646094 6,14 C6,14.7353906 6.59804687,15.3333594 7.33335937,15.3333594 C8.06867187,15.3333594 8.66671875,14.7353906 8.66671875,14 C8.66671875,13.2646094 8.06867187,12.6666406 7.33335937,12.6666406 Z M25.2672656,10.6667188 L21.3992969,10.6667188 C20.9953125,10.6667188 20.6666406,10.9707031 20.6666406,11.3440625 L20.6666406,11.3440625 L20.6666406,12.7033594 C22.3260156,13.53 24.3407031,13.53 26,12.7033594 L25.9999219,12.7033594 L25.9999219,11.3440625 C25.9999219,10.9707031 25.67125,10.6667188 25.2672656,10.6667188 L25.2672656,10.6667188 Z M37.3333594,9.33328125 C36.5979687,9.33328125 36,9.93132813 36,10.6666406 C36,11.4020313 36.5980469,12 37.3333594,12 C38.0686719,12 38.6666406,11.4020313 38.6667187,10.6666406 C38.6667187,9.93125 38.06875,9.33328125 37.3333594,9.33328125 Z M23.3333594,1.33335937 C20.0246875,1.33335937 17.3333594,4.0246875 17.3333594,7.33335937 C17.3333594,9.10655523 18.1063472,10.7024411 19.333085,11.8017792 L19.3333594,11.3433594 C19.3333594,10.2353906 20.2600781,9.33335938 21.399375,9.33335938 L21.399375,9.33335938 L25.2673437,9.33335938 C26.4066406,9.33335938 27.3333594,10.2353125 27.3333594,11.3440625 L27.3333594,11.3440625 L27.3342147,11.8012586 C28.5606155,10.7019373 29.3333594,9.10627534 29.3333594,7.33335937 C29.3333594,4.0246875 26.6420312,1.33335937 23.3333594,1.33335937 Z M23.3333594,2.66664063 C24.8039844,2.66664063 26,3.86273438 26,5.33335938 C26,6.80398438 24.8039844,7.99992188 23.3333594,7.99992188 C21.8627344,7.99992188 20.6667187,6.80390625 20.6667187,5.33328125 C20.6667187,3.86265625 21.8626562,2.66664063 23.3333594,2.66664063 Z M23.3333594,3.99992188 C22.5979687,3.99992188 22,4.59796875 22,5.33328125 C22,6.06867188 22.5980469,6.66664063 23.3333594,6.66664063 C24.0686719,6.66664063 24.6666406,6.06867188 24.6667187,5.33328125 C24.6667187,4.59789063 24.06875,3.99992188 23.3333594,3.99992188 Z M7.33335938,1.33328125 C6.59796875,1.33328125 6,1.93132813 6,2.66664063 C6,3.40203125 6.59804687,4 7.33335938,4 L7.326,4 C7.33574878,4 7.33813527,4.00001256 7.34051877,4.00003763 C8.07251291,3.99615135 8.66664088,3.39966556 8.66671875,2.66664063 C8.66671875,1.93125 8.06867188,1.33328125 7.33335938,1.33328125 Z" id="Combined-Shape"></path>
                        </g>
                    </g>
                </g>
            </g>
        </g>
    </g>
</svg>