<?xml version="1.0" encoding="UTF-8"?>
<svg width="14px" height="18px" viewBox="0 0 14 18" version="1.1" xmlns="http://www.w3.org/2000/svg" xmlns:xlink="http://www.w3.org/1999/xlink">
    <!-- Generator: Sketch 53.2 (72643) - https://sketchapp.com -->
    <title>icon-notebook-blue</title>
    <desc>Created with Sketch.</desc>
    <g id="Symbols" stroke="none" stroke-width="1" fill="none" fill-rule="evenodd">
        <g id="quick-facts/light/desktop" transform="translate(-584.000000, -20.000000)" fill="#0F4BEB" fill-rule="nonzero" stroke="#0F4BEB" stroke-width="0.3">
            <g id="intakes-copy-2">
                <g transform="translate(585.000000, 21.000000)">
                    <g id="icon-notebook-blue">
                        <path d="M2.60869565,0 L12,0 L12,16 L2.60869565,16 L0,16 L0,0 L2.60869565,0 Z M0.52173913,15.4666667 L2.08695652,15.4666667 L2.08695652,0.533333333 L0.52173913,0.533333333 L0.52173913,15.4666667 Z M11.4782609,15.4666667 L11.4782609,0.533333333 L2.60869565,0.533333333 L2.60869565,15.4666667 L11.4782609,15.4666667 Z M10.173913,6.4 L3.91304348,6.4 L3.91304348,2.66666667 L10.173913,2.66666667 L10.173913,6.4 Z M4.43478261,3.2 L4.43478261,5.86666667 L9.65217391,5.86666667 L9.65217391,3.2 L4.43478261,3.2 Z M5.2173913,3.73333333 L8.86956522,3.73333333 L8.86956522,4.26666667 L5.2173913,4.26666667 L5.2173913,3.73333333 Z M5.2173913,4.8 L8.86956522,4.8 L8.86956522,5.33333333 L5.2173913,5.33333333 L5.2173913,4.8 Z" id="Combined-Shape"></path>
                    </g>
                </g>
            </g>
        </g>
    </g>
</svg>