<?xml version="1.0" encoding="UTF-8"?>
<svg width="20px" height="19px" viewBox="0 0 20 19" version="1.1" xmlns="http://www.w3.org/2000/svg" xmlns:xlink="http://www.w3.org/1999/xlink">
    <!-- Generator: Sketch 53.2 (72643) - https://sketchapp.com -->
    <title>icon-facebook-white-75</title>
    <desc>Created with Sketch.</desc>
    <g id="Symbols" stroke="none" stroke-width="1" fill="none" fill-rule="evenodd" opacity="0.75">
        <g id="footer/desktop" transform="translate(-1072.000000, -153.000000)" fill="#FFFFFF">
            <g id="Contact-us">
                <g transform="translate(1072.000000, 57.000000)">
                    <g id="social-icons" transform="translate(0.000000, 96.000000)">
                        <g id="icon-facebook-white-75">
                            <path d="M19,0 L1.06,0 C0.464,0.01 -0.01,0.478 0,1.045 L0,17.955 C-0.01,18.521 0.463,18.99 1.06,19 L10.84,19 L10.84,11.875 L8.32,11.875 L8.32,9.5 L10.84,9.5 L10.84,7.742 C10.84,5.292 12.29,3.942 14.5,3.942 C14.957,3.919 15.415,3.957 15.86,4.056 L15.86,6.327 L14.73,6.327 C14.074,6.204 13.438,6.61 13.31,7.233 C13.275,7.396 13.28,7.563 13.32,7.723 L13.32,9.5 L15.86,9.5 L15.49,11.894 L13.32,11.894 L13.32,19 L19,19 C19.573,18.96 20.012,18.501 20,17.955 L20,1.045 C20.012,0.5 19.573,0.04 19,0" id="Path"></path>
                        </g>
                    </g>
                </g>
            </g>
        </g>
    </g>
</svg>