<?xml version="1.0" encoding="UTF-8"?>
<svg width="21px" height="21px" viewBox="0 0 21 21" version="1.1" xmlns="http://www.w3.org/2000/svg" xmlns:xlink="http://www.w3.org/1999/xlink">
    <!-- Generator: Sketch 53.2 (72643) - https://sketchapp.com -->
    <title>icon-phone-black</title>
    <desc>Created with Sketch.</desc>
    <g id="Symbols" stroke="none" stroke-width="1" fill="none" fill-rule="evenodd">
        <g id="header/tablet" transform="translate(-53.000000, -14.000000)" fill="#000000">
            <g id="header_first">
                <g>
                    <g id="btn/white-black/call" transform="translate(16.000000, 14.000000)">
                        <g id="icon-phone-black" transform="translate(37.000000, 0.000000)">
                            <path d="M16.8517077,10.2651046 C16.6783949,6.94998761 14.0246088,4.30759849 10.7169093,4.15665272 L10.6105728,4.15079498 C10.5097062,4.15271925 10.4293153,4.23593445 10.4306187,4.33707113 L10.4306187,5.42192469 C10.4306187,5.53790795 10.5241013,5.64217573 10.6397861,5.65389121 L10.7040554,5.6609205 C13.1877642,5.8042584 15.1777379,7.7767806 15.3489742,10.2651046 L15.3618281,10.3881172 C15.3735134,10.5029289 15.4786814,10.5978243 15.5943662,10.5978243 L16.6764278,10.5978243 C16.7710852,10.5988718 16.850791,10.5271043 16.8598875,10.432636 C16.8587189,10.3764017 16.8552133,10.3213389 16.8517077,10.2651046 M21,10.3459414 C21,10.3025941 20.9976629,10.2592469 20.9964944,10.2170711 C20.8445851,4.63464435 16.3340476,0.128870293 10.760145,0.00351464435 L10.7321002,0 L10.7145722,0.00351464435 C10.6639943,0.00158306612 10.6148432,0.0205539691 10.5786142,0.0559905675 C10.5423852,0.0914271658 10.5222554,0.140221666 10.5229328,0.190962343 L10.5229328,1.27464435 C10.5229328,1.39062762 10.6164154,1.4948954 10.7321002,1.50778243 L10.760145,1.51012552 C15.5097439,1.64370105 19.3356825,5.45949581 19.4937609,10.2205858 L19.5019406,10.2967364 C19.513626,10.4115481 19.618794,10.5064435 19.7344787,10.5064435 L20.8165403,10.5064435 C20.9091978,10.5078045 20.9881295,10.4392541 21,10.347113 M17.2244698,17.0471967 L16.91364,17.3588285 L14.9937402,19.283682 C14.5532032,19.7007531 11.6073315,20.2174059 6.2215627,14.8189121 C0.835793946,9.41807531 1.35228555,6.46577406 1.76945184,6.02410042 L2.80594064,4.98376569 L3.63326203,4.15313808 L3.99901287,3.78644351 C4.11586618,3.6692887 4.30750559,3.6692887 4.4243589,3.78644351 L7.18793952,6.55832636 C7.30479283,6.67548117 7.30479283,6.86644351 7.18793952,6.98359833 L5.36035386,8.81941423 C5.33382383,8.84673041 5.31876555,8.88321513 5.31828667,8.92133891 C5.31828667,8.94476987 5.32529787,8.96585774 5.33464613,8.98577406 L5.35801679,9.02443515 L5.62327379,9.41807531 C5.68754311,9.51179916 7.19728779,11.7330544 8.24779899,12.7874477 C9.29947872,13.841841 11.5150174,15.3543096 11.6085,15.4187448 C11.6085,15.4187448 11.8141618,15.5651883 11.928678,15.6413389 L12.0268348,15.7022594 C12.0842166,15.7372147 12.1578001,15.7295499 12.2067889,15.6835146 L13.5097032,14.37841 L13.6697923,14.2167364 L14.0367116,13.8500418 C14.1535649,13.732887 14.3440358,13.732887 14.4608891,13.8500418 L17.2256383,16.6219247 C17.3424916,16.7390795 17.3424916,16.9300418 17.2256383,17.0471967 M19.3173124,16.6172385 L19.3161439,16.6172385 L14.4270017,11.7154812 C14.3101484,11.5983264 14.1196775,11.5983264 14.0028242,11.7154812 L13.0820202,12.6386611 L12.4895739,13.232636 L11.996453,13.7258577 C11.9380263,13.779749 11.8445437,13.7715481 11.7826114,13.72 C11.060458,13.2045188 9.90594736,12.3492887 9.27727659,11.7166527 C8.64860582,11.0887029 7.7955767,9.93238494 7.28142217,9.2083682 C7.22766965,9.1451046 7.21832138,9.04552301 7.27674804,8.98694561 L8.23494512,8.02627615 L9.27961366,6.98008368 L9.27961366,6.97891213 C9.39646696,6.86175732 9.39646696,6.67079498 9.27961366,6.55364017 L4.39047144,1.65305439 C4.27361813,1.53589958 4.08314725,1.53589958 3.96629395,1.65305439 L3.80854199,1.80769874 L2.53834658,3.08351464 L1.88864221,3.7348954 L1.69349719,3.93054393 L0.672199321,4.95447699 C0.131168525,5.49690377 -0.269638306,6.73405858 0.223482635,8.57924686 C0.801906487,10.7407531 2.03354031,12.7780753 5.12664725,15.8779916 C9.28896192,20.0522176 12.1542049,21 13.8976562,21 C15.3326148,21 16.0080269,20.3591632 16.0232178,20.3439331 L17.5481534,18.8138912 L17.569187,18.7939749 L19.3161439,17.0425105 C19.4329972,16.9253556 19.4329972,16.7343933 19.3161439,16.6172385" id="Shape"></path>
                        </g>
                    </g>
                </g>
            </g>
        </g>
    </g>
</svg>