<?xml version="1.0" encoding="UTF-8"?>
<svg width="18px" height="16px" viewBox="0 0 18 16" version="1.1" xmlns="http://www.w3.org/2000/svg" xmlns:xlink="http://www.w3.org/1999/xlink">
    <!-- Generator: Sketch 53.2 (72643) - https://sketchapp.com -->
    <title>icon-arrow-left-white</title>
    <desc>Created with Sketch.</desc>
    <g id="Symbols" stroke="none" stroke-width="1" fill="none" fill-rule="evenodd">
        <g id="form/desktop/step3" transform="translate(-37.000000, -363.000000)" fill="#FFFFFF" fill-rule="nonzero">
            <g id="icon-arrow-left-white" transform="translate(37.000000, 363.049635)">
                <path d="M17.9560976,7.7459206 L10.3478049,0.0436983748 C10.3205781,0.0157403188 10.2834156,-5.70407918e-14 10.2446342,-5.68434189e-14 C10.2058527,-5.66522138e-14 10.1686902,0.0157403188 10.1414634,0.0436983748 L9.31609758,0.87925393 C9.28848047,0.906816845 9.27293211,0.944438126 9.27293211,0.983698375 C9.27293211,1.02295862 9.28848047,1.0605799 9.31609758,1.08814282 L15.0234146,6.8659206 C15.0636448,6.90780049 15.0754888,6.96985611 15.0535656,7.0238934 C15.0316423,7.0779307 14.9801326,7.11364478 14.922439,7.11480949 L0.144878063,7.11480949 C0.0648641261,7.11480949 1.42527935e-08,7.18047439 1.42527934e-08,7.26147615 L1.42527934e-08,8.43925393 C-3.49213291e-05,8.52100499 0.0641588909,8.58796061 0.144878063,8.59036504 L14.9268293,8.59036504 C14.9845229,8.59152975 15.0360326,8.62724383 15.0579558,8.68128112 C15.0798791,8.73531842 15.068035,8.79737403 15.0278049,8.83925393 L9.32048782,14.6170317 C9.29287072,14.6445946 9.27732235,14.6822159 9.27732235,14.7214762 C9.27732235,14.7607364 9.29287072,14.7983577 9.32048782,14.8259206 L10.1458537,15.6659206 C10.1730805,15.6938787 10.2102429,15.709619 10.2490244,15.709619 C10.2878059,15.709619 10.3249684,15.6938787 10.3521951,15.6659206 L17.9560976,7.95036504 C17.9837147,7.92280213 17.999263,7.88518085 17.999263,7.8459206 C17.999263,7.80666035 17.9837147,7.76903907 17.9560976,7.74147615" id="Path" transform="translate(8.999632, 7.854809) scale(-1, 1) translate(-8.999632, -7.854809) "></path>
            </g>
        </g>
    </g>
</svg>