<?xml version="1.0" encoding="UTF-8"?>
<svg width="20px" height="20px" viewBox="0 0 20 20" version="1.1" xmlns="http://www.w3.org/2000/svg" xmlns:xlink="http://www.w3.org/1999/xlink">
    <!-- Generator: Sketch 53.2 (72643) - https://sketchapp.com -->
    <title>icon-fees-blue</title>
    <desc>Created with Sketch.</desc>
    <g id="Symbols" stroke="none" stroke-width="1" fill="none" fill-rule="evenodd">
        <g id="quick-facts/light/desktop" transform="translate(-399.000000, -20.000000)" fill="#0F4BEB">
            <g id="intakes-copy">
                <g transform="translate(399.000000, 20.000000)">
                    <g id="icon-fees-blue">
                        <path d="M11.029,6.55 C11.029,6.623 10.969,6.682 10.897,6.682 L9.844,6.682 C9.77187738,6.68145566 9.71354434,6.62312262 9.713,6.551 L9.713,4.788 C9.713,4.715 9.772,4.656 9.844,4.656 L10.897,4.656 C10.969,4.656 11.029,4.716 11.029,4.788 L11.029,6.55 L11.029,6.55 Z M11.029,15.174 C11.029,15.247 10.969,15.306 10.897,15.306 L9.844,15.306 C9.77148924,15.3054507 9.71299792,15.2465128 9.713,15.174 L9.713,13.412 C9.713,13.339 9.772,13.28 9.844,13.28 L10.897,13.28 C10.969,13.28 11.029,13.34 11.029,13.412 L11.029,15.174 L11.029,15.174 Z" id="Shape"></path>
                        <path d="M9.985,1.316 C5.205,1.316 1.316,5.205 1.316,9.985 C1.316,14.765 5.205,18.655 9.985,18.655 C14.765,18.655 18.655,14.765 18.655,9.985 C18.655,5.205 14.765,1.315 9.985,1.315 M9.985,19.97 C4.479,19.97 0,15.49 0,9.985 C0,4.479 4.48,0 9.985,0 C15.491,0 19.97,4.48 19.97,9.985 C19.97,15.49 15.49,19.97 9.985,19.97" id="Shape"></path>
                        <path d="M12.921,10.515 C12.675,10.078 12.256,9.735 11.711,9.525 C11.398,9.404 11.041,9.327 10.695,9.253 C9.822,9.066 9.237,8.908 9.08,8.434 C8.985,8.148 9.124,7.737 9.367,7.589 C9.66822581,7.41213973 10.0139842,7.32570014 10.363,7.34 C10.771,7.345 11.523,7.528 11.581,8.17 C11.5856187,8.2185427 11.626239,8.25570595 11.675,8.256 L12.809,8.264 C12.813,8.266 12.822,8.264 12.826,8.262 C12.8433183,8.25857893 12.8592868,8.25024757 12.872,8.238 C12.8839044,8.22528213 12.8924909,8.20982638 12.897,8.193 L12.897,8.17 C12.8889186,7.8770622 12.8201351,7.58898881 12.695,7.324 C12.6187371,7.16424661 12.5211834,7.0155612 12.405,6.882 C12.318609,6.78207034 12.2228376,6.69065223 12.119,6.609 C12.0495601,6.5549411 11.9778271,6.50389392 11.904,6.456 C11.7907925,6.38378479 11.6717051,6.32123047 11.548,6.269 C11.4240741,6.21401839 11.2960117,6.16887892 11.165,6.134 C11.0327996,6.09706812 10.8981208,6.0696645 10.762,6.052 C10.6346347,6.03539094 10.5064275,6.0260425 10.378,6.024 C9.743,6.02 9.165,6.17 8.68,6.466 C7.916,6.935 7.543,7.981 7.83,8.848 C8.237,10.073 9.498,10.343 10.42,10.54 C10.728,10.606 11.02,10.668 11.236,10.752 C11.49,10.85 11.682,10.996 11.775,11.162 C11.884,11.354 11.879,11.64 11.763,11.872 C11.64,12.119 11.393,12.333 11.089,12.46 C10.538,12.69 9.865,12.672 9.375,12.413 C9.02843145,12.2432687 8.7781091,11.9248439 8.695,11.548 C8.68948771,11.5011764 8.65014203,11.4656798 8.603,11.465 L8.597,11.465 L7.467,11.627 C7.42209759,11.6339135 7.38896472,11.6725685 7.389,11.718 C7.53163529,12.5176187 8.03894974,13.2050076 8.761,13.577 C9.213,13.816 9.739,13.937 10.271,13.937 C10.721,13.937 11.177,13.849 11.595,13.675 C12.195,13.425 12.673,12.993 12.94,12.46 C13.252,11.836 13.245,11.09 12.921,10.515" id="Path"></path>
                    </g>
                </g>
            </g>
        </g>
    </g>
</svg>