<?xml version="1.0" encoding="UTF-8"?>
<svg width="26px" height="26px" viewBox="0 0 26 26" version="1.1" xmlns="http://www.w3.org/2000/svg" xmlns:xlink="http://www.w3.org/1999/xlink">
    <!-- Generator: Sketch 53.2 (72643) - https://sketchapp.com -->
    <title>icon-phone-white</title>
    <desc>Created with Sketch.</desc>
    <g id="Symbols" stroke="none" stroke-width="1" fill="none" fill-rule="evenodd">
        <g id="btn/white-black/call/desktop" transform="translate(-15.000000, -14.000000)" fill="#FFFFFF">
            <g id="btn/white-black/call">
                <g id="icon-phone">
                    <g id="icon-phone-white" transform="translate(15.000000, 14.000000)">
                        <path d="M20.8640191,12.7091771 C20.6494413,8.60474657 17.3638013,5.33321718 13.2685544,5.14633194 L13.1368996,5.1390795 C13.0120172,5.14146192 12.9124856,5.24449028 12.9140993,5.36970711 L12.9140993,6.71285914 C12.9140993,6.85645746 13.0298398,6.98555091 13.1730685,7.00005579 L13.2526401,7.00875872 C16.327708,7.18622468 18.791485,9.62839503 19.0034919,12.7091771 L19.0194062,12.8614784 C19.0338738,13.0036262 19.1640817,13.1211158 19.3073105,13.1211158 L20.6470058,13.1211158 C20.7642008,13.1224128 20.8628841,13.0335577 20.8741464,12.9165969 C20.8726996,12.8469735 20.8683594,12.7788006 20.8640191,12.7091771 M26,12.8092608 C26,12.7555927 25.9971065,12.7019247 25.9956597,12.6497071 C25.8075816,5.7381311 20.2231065,0.159553696 13.3220843,0.00435146444 L13.2873622,0 L13.2656608,0.00435146444 C13.2030405,0.00195998663 13.1421869,0.0254477713 13.0973319,0.0693216549 C13.0524769,0.113195539 13.0275543,0.173607777 13.028393,0.236429568 L13.028393,1.5781311 C13.028393,1.72172943 13.1441334,1.85082287 13.2873622,1.86677824 L13.3220843,1.86967922 C19.2025401,2.03505844 23.9394164,6.75937576 24.1351326,12.6540586 L24.1452599,12.7483403 C24.1597274,12.8904881 24.2899354,13.0079777 24.4331641,13.0079777 L25.7728594,13.0079777 C25.8875782,13.0096627 25.9853032,12.9247908 26,12.8107113 M21.325534,21.106053 L20.9406971,21.4918828 L18.5636783,23.8750349 C18.0182516,24.3914086 14.3709818,25.0310739 7.70288716,18.3472245 C1.0347925,11.6604742 1.6742583,8.00524407 2.1907499,7.45841004 L3.47402175,6.17037657 L4.49832442,5.14198047 L4.95115879,4.68797768 C5.09583431,4.54292887 5.33310216,4.54292887 5.47777768,4.68797768 L8.8993537,8.11983264 C9.04402922,8.26488145 9.04402922,8.50131102 8.8993537,8.64635983 L6.63662859,10.9192748 C6.60378188,10.9530948 6.58513831,10.9982664 6.5845454,11.0454672 C6.5845454,11.074477 6.59322593,11.1005858 6.60479997,11.1252441 L6.63373508,11.1731102 L6.9621485,11.6604742 C7.04172004,11.7765132 8.91092774,14.5266388 10.2115607,15.8320781 C11.5136403,17.1375174 14.2566882,19.0100976 14.3724286,19.0898745 C14.3724286,19.0898745 14.6270575,19.2711855 14.7688395,19.3654672 L14.8903669,19.4408926 C14.961411,19.4841706 15.0525144,19.4746808 15.1131672,19.4176848 L16.7262993,17.801841 L16.9245047,17.6016736 L17.3787858,17.1476709 C17.5234614,17.002622 17.7592825,17.002622 17.903958,17.1476709 L21.3269807,20.5795258 C21.4716563,20.7245746 21.4716563,20.9610042 21.3269807,21.106053 M23.9166725,20.5737238 L23.9152258,20.5737238 L17.8620021,14.5048815 C17.7173266,14.3598326 17.4815055,14.3598326 17.3368299,14.5048815 L16.1967869,15.6478661 L15.463282,16.3832636 L14.8527513,16.9939191 C14.7804135,17.0606416 14.6646731,17.0504881 14.5879951,16.9866667 C13.6939004,16.3484519 12.2645063,15.2895955 11.486152,14.5063319 C10.7077977,13.7288703 9.65166639,12.2972385 9.01509411,11.4008368 C8.94854337,11.3225105 8.93696933,11.199219 9.00930709,11.1266946 L10.1956463,9.93729428 L11.4890455,8.64200837 L11.4890455,8.64055788 C11.633721,8.49550907 11.633721,8.2590795 11.4890455,8.11403068 L5.43582178,2.04663877 C5.29114626,1.90158996 5.05532517,1.90158996 4.91064965,2.04663877 L4.7153377,2.23810321 L3.14271481,3.8176848 L2.33831893,4.62415621 L2.09671081,4.86638773 L0.832246778,6.13411437 C0.162399127,6.80569038 -0.333837902,8.33740586 0.276692786,10.6219247 C0.992836604,13.2980753 2.51771657,15.8204742 6.34727755,19.6584658 C11.5006195,24.8265551 15.0480632,26 17.206622,26 C18.9832373,26 19.8194618,25.206583 19.8382697,25.1877266 L21.7262852,23.2933891 L21.7523268,23.2687308 L23.9152258,21.100251 C24.0599013,20.9552022 24.0599013,20.7187727 23.9152258,20.5737238" id="Shape"></path>
                    </g>
                </g>
            </g>
        </g>
    </g>
</svg>