<?xml version="1.0" encoding="UTF-8"?>
<svg width="40px" height="45px" viewBox="0 0 40 45" version="1.1" xmlns="http://www.w3.org/2000/svg" xmlns:xlink="http://www.w3.org/1999/xlink">
    <!-- Generator: Sketch 59.1 (86144) - https://sketch.com -->
    <title>icon-brain-blue</title>
    <desc>Created with Sketch.</desc>
    <g id="Page-1" stroke="none" stroke-width="1" fill="none" fill-rule="evenodd">
        <g id="Home-Desktop" transform="translate(-112.000000, -687.000000)" fill="#0F4BEB" fill-rule="nonzero">
            <g id="VPs-intro-section" transform="translate(0.000000, 567.000000)">
                <g id="value-props" transform="translate(88.000000, 0.000000)">
                    <g id="value-prop" transform="translate(24.000000, 120.000000)">
                        <g id="icon-brain-blue">
                            <path d="M11.8868311,2.07773622 C14.2408027,-0.141297306 16.4181705,-0.194233777 17.8531319,0.168629896 C18.7991915,0.407975137 19.5404802,0.856125347 19.9998735,1.19478303 C20.4594904,0.856577795 21.200332,0.407975137 22.1466152,0.168629896 C23.5815766,-0.193555105 25.7589444,-0.140844858 28.112916,2.07773622 C29.3277241,1.95947948 31.2999557,2.42564574 32.5293876,4.8054301 C32.7640715,4.83404987 32.9779565,4.95749043 33.1042274,5.14531846 C33.9592683,5.34118353 35.2435174,5.83029048 36.3692534,7.05376449 C38.0943815,8.92893718 38.8506479,11.8354662 38.6179334,15.6955303 C38.9396205,16.2495534 39.7057231,17.7270239 39.9346373,19.5822889 C40.1944013,21.6848169 39.798496,24.6492593 36.5501046,27.0547016 L36.5738296,27.0380672 C36.5685974,27.0539018 36.5628064,27.0695864 36.5564609,27.0850913 C36.9233929,29.3370911 36.5547474,33.1825933 33.0209356,35.0777441 C33.1680309,35.8955447 33.2661689,37.3146493 32.544329,38.5274374 C31.977185,39.4816513 31.0396203,40.1089711 29.7551074,40.3958234 C29.1023441,41.4149636 26.8380157,44.5866274 24.0277805,44.5450021 C22.5326844,44.5232846 21.1813303,43.6283415 19.99965,41.8821166 C18.8184168,43.6287939 17.4670627,44.5232846 15.9715195,44.5450021 L15.9715195,44.5450021 L15.9180913,44.5454545 C13.1284226,44.5454545 10.892932,41.4086293 10.2444162,40.3958234 C8.95990326,40.1089711 8.02256205,39.481425 7.45519454,38.5274374 C6.73357818,37.3146493 6.83126912,35.8957709 6.97858795,35.0777441 C3.42974664,33.1742934 3.07340944,29.3033705 3.44986605,27.0547016 C0.201698225,24.6492593 -0.19398361,21.6845907 0.0651097497,19.5822889 C0.294471084,17.7270239 1.06012661,16.249101 1.38181371,15.6955303 C1.14909914,11.8354662 1.90491851,8.92893718 3.63049369,7.05376449 C4.97536483,5.59190349 6.54646762,5.17836558 7.34431421,5.0618601 C8.56064464,2.45892405 10.6282499,1.95489646 11.8868311,2.07773622 Z M17.4250355,1.65311333 C15.8300129,1.27396151 14.2340962,1.87730154 12.6813244,3.44797641 C12.4917548,3.64004078 12.217013,3.7167308 11.9568019,3.65112577 C11.9033737,3.63845722 11.7415242,3.60633337 11.5119393,3.60633337 C10.7983707,3.60633337 9.4262266,3.91490323 8.57226919,6.074666 C8.45624723,6.36762639 8.17591671,6.55991699 7.86384222,6.55991699 C7.79789525,6.56082189 6.11524148,6.6001849 4.72498989,8.13059185 C3.27907457,9.7225318 2.67191533,12.3143829 2.92072543,15.8351106 C2.93257353,16.0059099 2.88831082,16.1760306 2.79442021,16.3185518 C2.63883007,16.5567659 -0.970593041,22.230696 4.7218602,26.0710786 C4.99011907,26.2522842 5.11709493,26.5843814 5.03885276,26.9008691 C4.98833068,27.1094478 3.84264175,32.067152 8.16384506,33.9411935 C8.52890067,34.0995505 8.71243445,34.5142195 8.58724698,34.8951811 C8.58255245,34.9096595 8.06235379,36.564716 8.76541558,37.7376886 C9.14276639,38.3670445 9.84113365,38.7719858 10.8406215,38.9407491 C11.0637235,38.9783023 11.2595524,39.1149418 11.3740095,39.3126618 C11.9742388,40.3492212 13.9752264,43.0333718 15.9516236,43.0015338 C17.1393398,42.9826975 18.2709451,41.9911567 19.3146957,40.0542248 C19.3939233,39.9073921 19.5161144,39.7935041 19.6605718,39.724978 L19.6605881,2.87955664 C19.5815092,2.84191987 19.5086468,2.79047829 19.4456954,2.72677355 C19.4403302,2.72134417 18.6456133,1.94335902 17.4250355,1.65311333 Z M26.7118095,2.88546238 C25.3322215,1.72037044 23.9236405,1.31108854 22.5165888,1.66691301 C21.8762974,1.82887094 21.3580818,2.12199209 21.0152138,2.35899405 L21.0169492,40.3477506 C21.0169492,40.4292176 21.0058425,40.5077259 20.98526,40.581428 C21.9433886,42.1707498 22.9722898,42.9844868 24.0467822,43.0015338 L24.0467822,43.0015338 L24.0807616,43.0015338 C26.0549234,43.0015338 28.0277438,40.3431132 28.6243962,39.3126618 C28.7388534,39.1149418 28.9342352,38.9783023 29.1577843,38.9407491 C30.1604018,38.7717596 30.8603339,38.3647822 31.2367905,37.7315806 C31.9313575,36.5649422 31.4169711,34.9119217 31.4116059,34.8954073 C31.2859713,34.5144457 31.4699522,34.0997767 31.8350078,33.9414197 C34.8906816,32.6163329 35.2196346,29.7757355 35.1279324,28.1343065 C34.2841258,28.5669549 33.4628543,28.7832168 32.6696543,28.7832168 C32.2804424,28.7832168 31.8978311,28.7311775 31.5225033,28.6266633 C29.005827,27.9266365 27.8912241,25.1069328 27.8450194,24.987177 C27.6961629,24.6022167 27.9021494,24.1745798 28.3045627,24.0326148 C28.7053827,23.8897788 29.152635,24.086396 29.3017191,24.4707031 C29.3101407,24.4933478 30.1984999,26.7151437 31.9617893,27.2009166 C32.8484351,27.4453471 33.8596801,27.2068792 34.9709721,26.4909934 C35.0208969,26.3219535 35.1269315,26.1728444 35.2774398,26.0713048 C37.6783567,24.4515393 38.7355202,22.3327231 38.4196454,19.7743532 C38.1773182,17.8134416 37.2147159,16.3334826 37.2048798,16.318778 C37.1109892,16.1762568 37.0667265,16.0059099 37.0785746,15.8353369 C37.3269376,12.3148353 36.7200019,9.72275802 35.2743101,8.13081808 C33.8840585,6.6001849 32.2014047,6.56127433 32.1305397,6.56014321 C32.0314255,6.55890673 31.9351537,6.53823737 31.846338,6.50113503 C28.7984701,7.77442253 28.724649,10.1416796 28.7226969,10.2500971 C28.7168221,10.6450272 28.3589299,10.965035 27.9206705,10.965035 L27.9206705,10.965035 C27.4744214,10.9624952 27.1186441,10.6422759 27.1186441,10.2452292 C27.1186441,10.0994234 27.1670916,6.92807227 31.0256282,5.2486806 C29.9367912,3.40448759 28.4145558,3.57906843 28.0807978,3.64335107 L26.473405,5.85027502 C26.3223654,6.05852056 26.0900488,6.16783217 25.8545714,6.16783217 C25.6942752,6.16783217 25.5333018,6.11732744 25.3953567,6.01193628 C25.0539936,5.75226355 24.983102,5.25897761 25.2370925,4.91074864 L25.2370925,4.91074864 Z M12.5423729,6.85314685 C14.2245511,6.85314685 15.5932203,8.23665129 15.5932203,9.93706294 C15.5932203,11.5215374 14.4048252,12.8308461 12.8817481,13.0020223 L12.881,19.188 L14.8401943,19.1888112 C14.8534428,19.1888112 14.8666117,19.1891229 14.8796926,19.1897386 L14.9152542,19.1888112 C15.0846228,19.1888112 15.2395482,19.2595475 15.3584143,19.3764399 C15.503067,19.5017716 15.5933345,19.6784089 15.5932203,19.8741259 C15.5932203,19.886668 15.5928499,19.8991318 15.5921184,19.9115087 L15.5932203,19.9597337 L15.5932511,24.1621909 C16.7769832,24.5865019 17.6271186,25.7297941 17.6271186,27.0699301 C17.6271186,28.4100661 16.7769832,29.5533583 15.5932511,29.9776692 L15.5932511,33.0712818 C16.7769832,33.4955928 17.6271186,34.638885 17.6271186,35.979021 C17.6271186,37.6794326 16.2584494,39.0629371 14.5762712,39.0629371 C12.8940929,39.0629371 11.5254237,37.6794326 11.5254237,35.979021 C11.5254237,34.3942346 12.7142868,33.0847223 14.2377955,32.9139606 L14.2377955,30.1349904 C12.7142868,29.9642287 11.5254237,28.6547165 11.5254237,27.0699301 C11.5254237,25.4851437 12.7142868,24.1756314 14.2377955,24.0048697 L14.237,20.559 L10.1507182,20.5600178 C9.98778976,22.0405095 8.78370277,23.208122 7.29762973,23.2954539 L7.11864407,23.3006993 C5.43646582,23.3006993 4.06779661,21.9171949 4.06779661,20.2167832 C4.06779661,18.5163716 5.43646582,17.1328671 7.11864407,17.1328671 C8.44436074,17.1328671 9.57549757,17.9921536 9.99524527,19.1886471 L11.525,19.188 L11.525393,12.8448021 C10.3953023,12.439719 9.56925915,11.3793403 9.49671461,10.1179887 L9.49152542,9.93706294 C9.49152542,8.23665129 10.8601946,6.85314685 12.5423729,6.85314685 Z M21.9377288,26.9602877 C22.2609946,26.6496011 22.7865746,26.6496011 23.1098403,26.9602877 C24.9327698,28.7096536 25.5410228,30.4746415 25.7080257,31.7546624 C26.1043039,31.6076615 26.5333376,31.5244755 26.9943676,31.5244755 C27.4370814,31.5244755 27.7966102,31.8877084 27.7966102,32.3352759 C27.7966102,32.7828435 27.4373164,33.1460764 26.9946025,33.1460764 C26.5164848,33.1460764 26.0725706,33.3148922 25.6690727,33.5865543 C25.6606679,33.6278928 25.6543234,33.6530588 25.6517628,33.6627739 C25.5577704,34.0242704 25.2194465,34.2657343 24.8480917,34.2657343 L24.9052612,34.2612315 C24.0570336,35.195591 23.4774039,36.4794098 23.2580882,37.1387873 C23.1452949,37.478264 22.8325284,37.6923077 22.4972032,37.6923077 C22.4130781,37.6923077 22.3270732,37.6790042 22.2429482,37.6502592 C21.823028,37.5079593 21.5962664,37.049939 21.7363181,36.625415 C21.7823463,36.4854978 22.5416982,34.2379496 24.1038893,32.7733678 C24.1459937,31.8990144 23.9503351,30.0164872 21.9377288,28.085099 C21.6139774,27.7746455 21.6139774,27.2709743 21.9377288,26.9602877 Z M14.5762712,34.43695 C13.7349586,34.43695 13.0507357,35.1285893 13.0507357,35.979021 C13.0507357,36.8294527 13.7349586,37.521092 14.5762712,37.521092 C15.4173603,37.521092 16.1015832,36.8294527 16.1018066,35.979021 C16.1018066,35.1285893 15.4175838,34.43695 14.5762712,34.43695 Z M14.5762712,25.5278591 C13.7349586,25.5278591 13.0507357,26.2194984 13.0507357,27.0699301 C13.0507357,27.9203618 13.7349586,28.6120011 14.5762712,28.6120011 C15.4173603,28.6120011 16.1018066,27.9203618 16.1018066,27.0699301 C16.1018066,26.2194984 15.4175838,25.5278591 14.5762712,25.5278591 Z M7.11864407,18.6747122 C6.27733149,18.6747122 5.59310861,19.3663515 5.59310861,20.2167832 C5.59310861,21.0672149 6.27733149,21.7588542 7.11864407,21.7588542 C7.95995665,21.7588542 8.64417952,21.0672149 8.64417952,20.2167832 C8.64417952,19.3663515 7.95995665,18.6747122 7.11864407,18.6747122 Z M24.9803838,7.53871147 C25.418882,7.52802294 25.756223,7.86154871 25.7623195,8.27251179 C25.764093,8.40047877 25.780702,10.2800596 25.1897046,12.4877728 L25.2229308,12.500388 C26.0439485,12.8608144 26.3727887,13.7401229 26.7174641,14.6605042 C27.0644835,15.5873268 27.4960763,16.7409517 28.500665,18.0880121 C30.434666,20.681808 34.0760202,19.3987752 34.230624,19.3430892 C34.6266422,19.1994779 35.0644997,19.4057641 35.2081402,19.8043587 C35.3517807,20.2031788 35.1486256,20.643707 34.7530548,20.7891219 C34.6561758,20.824292 33.4797555,21.2447552 31.9977075,21.2447552 C30.4668844,21.2447552 28.6102971,20.7965617 27.2794968,19.0119039 C26.1440208,17.4889929 25.6495573,16.1678592 25.2882186,15.203161 C25.0099049,14.4597145 24.8635187,14.1279312 24.7026997,13.9813584 C24.3162708,14.9744938 23.7892346,15.9689275 23.0705909,16.8492939 C22.9188552,17.0357978 22.693058,17.1328671 22.4652286,17.1328671 C22.2979128,17.1328671 22.1299197,17.0807333 21.9885707,16.9727573 C21.6539392,16.7181958 21.5970383,16.2500818 21.8605436,15.9270264 C24.0498835,13.2445834 24.2096277,9.15245172 24.2202159,8.41101513 L24.2208019,8.29410699 C24.2147054,7.88314391 24.5545302,7.54460107 24.9803838,7.53871147 Z M12.5423729,8.39499196 C11.7010603,8.39499196 11.0168374,9.08663123 11.0168374,9.93706294 C11.0168374,10.4749762 11.2905805,10.9493599 11.7046719,11.2253735 C11.8284857,11.0645274 12.0061432,10.965035 12.2033898,10.965035 C12.4833934,10.965035 12.723922,11.1655275 12.827303,11.4513345 C13.5327269,11.3168549 14.0677108,10.689035 14.0679083,9.93706294 C14.0679083,9.08663123 13.3836855,8.39499196 12.5423729,8.39499196 Z" id="Combined-Shape"></path>
                        </g>
                    </g>
                </g>
            </g>
        </g>
    </g>
</svg>