<?xml version="1.0" encoding="UTF-8"?>
<svg width="13px" height="12px" viewBox="0 0 13 12" version="1.1" xmlns="http://www.w3.org/2000/svg" xmlns:xlink="http://www.w3.org/1999/xlink">
    <!-- Generator: Sketch 53.2 (72643) - https://sketchapp.com -->
    <title>icon-arrow-right-blue</title>
    <desc>Created with Sketch.</desc>
    <g id="Symbols" stroke="none" stroke-width="1" fill="none" fill-rule="evenodd">
        <g id="latest-news-section/tablet" transform="translate(-738.000000, -458.000000)" fill="#0F4BEB" fill-rule="nonzero">
            <g id="View-all-articles-&gt;">
                <g transform="translate(613.000000, 450.000000)">
                    <g id="icon-arrow-right-blue" transform="translate(125.000000, 8.000000)">
                        <path d="M12.9682927,5.63012346 L7.47341463,0.0674074074 C7.45375084,0.0472154781 7.42691127,0.0358474701 7.39890244,0.0358474701 C7.3708936,0.0358474701 7.34405403,0.0472154781 7.32439024,0.0674074074 L6.72829268,0.670864198 C6.70834699,0.690770747 6.69711762,0.717941672 6.69711762,0.746296296 C6.69711762,0.77465092 6.70834699,0.801821846 6.72829268,0.821728395 L10.8502439,4.9945679 C10.879299,5.02481449 10.887853,5.06963244 10.8720196,5.10865937 C10.8561861,5.14768631 10.8189846,5.17347981 10.7773171,5.17432099 L0.104634143,5.17432099 C0.0468462998,5.17432099 -3.2167543e-09,5.22174564 -3.21675431e-09,5.28024691 L-3.21675431e-09,6.1308642 C-2.52344703e-05,6.18990663 0.0463369633,6.23826346 0.104634143,6.24 L10.7804878,6.24 C10.8221554,6.24084118 10.8593569,6.26663468 10.8751903,6.30566161 C10.8910237,6.34468855 10.8824697,6.38950649 10.8534146,6.41975309 L6.73146341,10.5925926 C6.71151773,10.6124991 6.70028835,10.6396701 6.70028835,10.6680247 C6.70028835,10.6963793 6.71151773,10.7235502 6.73146341,10.7434568 L7.32756097,11.3501235 C7.34722476,11.3703154 7.37406433,11.3816834 7.40207317,11.3816834 C7.430082,11.3816834 7.45692158,11.3703154 7.47658536,11.3501235 L12.9682927,5.77777778 C12.9882384,5.75787123 12.9994677,5.7307003 12.9994677,5.70234568 C12.9994677,5.67399105 12.9882384,5.64682013 12.9682927,5.62691358" id="Path"></path>
                    </g>
                </g>
            </g>
        </g>
    </g>
</svg>