<?xml version="1.0" encoding="UTF-8"?>
<svg width="30px" height="24px" viewBox="0 0 30 24" version="1.1" xmlns="http://www.w3.org/2000/svg" xmlns:xlink="http://www.w3.org/1999/xlink">
    <!-- Generator: Sketch 53.2 (72643) - https://sketchapp.com -->
    <title>icon-certificate-blue</title>
    <desc>Created with Sketch.</desc>
    <g id="Symbols" stroke="none" stroke-width="1" fill="none" fill-rule="evenodd">
        <g id="flexible-entry-exit/desktop" transform="translate(-868.000000, -77.000000)" fill="#0F4BEB" fill-rule="nonzero">
            <g id="nested-courses-diagram">
                <g transform="translate(625.000000, 49.000000)">
                    <g id="Range-slider-content" transform="translate(9.000000, 0.000000)">
                        <g id="Graduate-Diploma" transform="translate(234.000000, 26.000000)">
                            <g id="icon-certificate-blue" transform="translate(0.000000, 2.000000)">
                                <path d="M10.2728906,16.907177 L11.7363281,18.276739 C12.0878906,18.6054778 12.0878906,19.1388284 11.7363281,19.4675672 C11.5607813,19.6320462 11.3303906,19.7142857 11.1,19.7142857 C10.8696094,19.7142857 10.6392187,19.6320462 10.4636719,19.4675672 L9,18.0982244 L7.53632815,19.4675672 C7.18500001,19.7965252 6.61500001,19.7965252 6.26367187,19.4675672 C5.91210938,19.1386091 5.91210938,18.6054778 6.26367187,18.276739 L7.72710937,16.907177 L7.09078129,16.3117629 C6.03820315,15.3266432 6.03820315,13.7237402 7.09078129,12.7388398 C8.14359372,11.7537201 9.85640628,11.7537201 10.9092187,12.7388398 C11.9617968,13.7239595 11.9617968,15.3266432 10.9092187,16.3117629 L10.2728906,16.907177 Z M8.36367186,13.9298873 C8.0128125,14.2581874 8.0128125,14.7924153 8.36367186,15.1207155 L9,15.7161295 L9.63632814,15.1207155 C9.9871875,14.7924153 9.9871875,14.2581874 9.63632814,13.9298873 C9.46101564,13.7656276 9.23039064,13.683388 9,13.683388 C8.76960936,13.683388 8.53898436,13.7656276 8.36367186,13.9298873 Z M4.30827068,10.2857143 C3.82237431,10.2857143 3.42857143,9.90200891 3.42857143,9.42857143 C3.42857143,8.95513394 3.82237431,8.57142857 4.30827068,8.57142857 L13.6917293,8.57142857 C14.1776257,8.57142857 14.5714286,8.95513394 14.5714286,9.42857143 C14.5714286,9.90200891 14.1776257,10.2857143 13.6917293,10.2857143 L4.30827068,10.2857143 Z M4.30827068,6.85714286 C3.82237431,6.85714286 3.42857143,6.47343749 3.42857143,6 C3.42857143,5.52656251 3.82237431,5.14285714 4.30827068,5.14285714 L13.6917293,5.14285714 C14.1776257,5.14285714 14.5714286,5.52656251 14.5714286,6 C14.5714286,6.47343749 14.1776257,6.85714286 13.6917293,6.85714286 L4.30827068,6.85714286 Z M29.1210938,0 C29.6065521,0 30,0.393064039 30,0.87804878 L30,23.1219512 C30,23.606936 29.6065521,24 29.1210938,24 L0.87890625,24 C0.393447891,24 0,23.606936 0,23.1219512 L0,0.87804878 C0,0.393064039 0.393447891,0 0.87890625,0 L29.1210938,0 Z M28.2421875,22.2439024 L28.2421875,1.75609756 L1.7578125,1.75609756 L1.7578125,22.2439024 L28.2421875,22.2439024 Z M19.7142857,12.1729883 C18.6741071,11.3723901 18,10.0996968 18,8.66880144 C18,6.25193977 19.9225446,4.28571429 22.2857143,4.28571429 C24.6488839,4.28571429 26.5714286,6.25193977 26.5714286,8.66880144 C26.5714286,10.0996968 25.8973214,11.3723901 24.8571429,12.1729883 L24.8571429,18.8375636 C24.8571429,19.1777094 24.6647321,19.4870367 24.3636161,19.6315416 C24.2475446,19.687015 24.1234375,19.7141811 24.0002232,19.7141811 C23.8033482,19.7141811 23.6084822,19.6447822 23.4513393,19.5110067 L22.2857143,18.517507 L21.1200893,19.5110067 C20.8647321,19.7287913 20.5091518,19.7758183 20.2078125,19.6315416 C19.9066965,19.4870367 19.7142857,19.1777094 19.7142857,18.8375636 L19.7142857,12.1729883 Z M23.1428571,16.9660767 L23.1428571,12.9637703 C22.8658482,13.0215266 22.5792411,13.0518886 22.2857143,13.0518886 C21.9921875,13.0518886 21.7055803,13.0215266 21.4285714,12.9637703 L21.4285714,16.9660767 L21.7370536,16.7030915 C22.0549107,16.4323446 22.5165178,16.4323446 22.834375,16.7030915 L23.1428571,16.9660767 Z M22.2857143,6.03894915 C20.8678571,6.03894915 19.7142857,7.2187301 19.7142857,8.66880144 C19.7142857,10.1188728 20.8678571,11.2986537 22.2857143,11.2986537 C23.7035714,11.2986537 24.8571429,10.1188728 24.8571429,8.66880144 C24.8571429,7.2187301 23.7035714,6.03894915 22.2857143,6.03894915 Z" id="Combined-Shape"></path>
                            </g>
                        </g>
                    </g>
                </g>
            </g>
        </g>
    </g>
</svg>