<?xml version="1.0" encoding="UTF-8"?>
<svg width="29px" height="17px" viewBox="0 0 29 17" version="1.1" xmlns="http://www.w3.org/2000/svg" xmlns:xlink="http://www.w3.org/1999/xlink">
    <!-- Generator: Sketch 53.2 (72643) - https://sketchapp.com -->
    <title>icon-arrowhead-down-blue</title>
    <desc>Created with Sketch.</desc>
    <g id="Symbols" stroke="none" stroke-width="1" fill="none" fill-rule="evenodd">
        <g id="accordion/open" transform="translate(-16.000000, -22.000000)" fill="#0F4BEB" fill-rule="nonzero">
            <g id="accordion-heading-open">
                <g transform="translate(16.100000, 17.900000)">
                    <g id="icon-arrowhead-down-blue" transform="translate(15.000000, 12.500000) rotate(-90.000000) translate(-15.000000, -12.500000) translate(7.000000, -2.000000)">
                        <path d="M13.944,28.144 L0.104,14.304 C0.0536754992,14.2543868 0.0253429254,14.1866684 0.0253429254,14.116 C0.0253429254,14.0453316 0.0536754992,13.9776132 0.104,13.928 L13.944,0.088 C13.9936132,0.0376754992 14.0613316,0.00934292541 14.132,0.00934292541 C14.2026684,0.00934292541 14.2703868,0.0376754992 14.32,0.088 L15.824,1.6 C15.8743245,1.64961325 15.9026571,1.71733155 15.9026571,1.788 C15.9026571,1.85866845 15.8743245,1.92638675 15.824,1.976 L3.824,13.976 C3.7736755,14.0256132 3.74534293,14.0933316 3.74534293,14.164 C3.74534293,14.2346684 3.7736755,14.3023868 3.824,14.352 L15.824,26.352 C15.8743245,26.4016132 15.9026571,26.4693316 15.9026571,26.54 C15.9026571,26.6106684 15.8743245,26.6783868 15.824,26.728 L14.32,28.144 C14.2703868,28.1943245 14.2026684,28.2226571 14.132,28.2226571 C14.0613316,28.2226571 13.9936132,28.1943245 13.944,28.144" id="Path"></path>
                    </g>
                </g>
            </g>
        </g>
    </g>
</svg>