<?xml version="1.0" encoding="UTF-8"?>
<svg width="15px" height="20px" viewBox="0 0 15 20" version="1.1" xmlns="http://www.w3.org/2000/svg" xmlns:xlink="http://www.w3.org/1999/xlink">
    <!-- Generator: Sketch 53.2 (72643) - https://sketchapp.com -->
    <title>icon-library-blue</title>
    <desc>Created with Sketch.</desc>
    <g id="Symbols" stroke="none" stroke-width="1" fill="none" fill-rule="evenodd">
        <g id="quick-facts/light/desktop" transform="translate(-149.000000, -20.000000)" fill="#0F4BEB" fill-rule="nonzero">
            <g id="units">
                <g transform="translate(149.000000, 20.000000)">
                    <g id="icon-library-blue">
                        <path d="M5.86105263,0.000104977196 C5.93094972,-0.00264724593 5.99130942,0.0490236559 6,0.119050827 L6,19.8598138 C6,19.9372365 5.93779114,20 5.86105263,20 L0.138947368,20 C0.102096235,20 0.0667544283,19.9852304 0.040696742,19.9589404 C0.0146390557,19.9326504 -1.04458322e-17,19.8969935 0,19.8598138 L0,0.119050827 C0.00869057663,0.0490236559 0.0690502769,-0.00264724593 0.138947368,0.000104977196 L5.86105263,0.000104977196 Z M4.59789474,18.4791923 L4.59789474,15.5055461 C4.59789474,15.4281234 4.53568588,15.3653599 4.45894737,15.3653599 L1.51157895,15.3653599 C1.43484043,15.3653599 1.37263158,15.4281234 1.37263158,15.5055461 L1.37263158,18.4791923 C1.37263158,18.556615 1.43484043,18.6193785 1.51157895,18.6193785 L4.45894737,18.6193785 C4.53568588,18.6193785 4.59789474,18.556615 4.59789474,18.4791923 Z M4.59789474,13.8063197 L4.59789474,1.51666456 C4.59789474,1.47948487 4.58325568,1.44382797 4.55719799,1.41753796 C4.53114031,1.39124795 4.4957985,1.37647838 4.45894737,1.37647838 L1.51157895,1.37647838 C1.47472781,1.37647838 1.43938601,1.39124795 1.41332832,1.41753796 C1.38727063,1.44382797 1.37263158,1.47948487 1.37263158,1.51666456 L1.37263158,13.8063197 C1.37263158,13.8837424 1.43484043,13.9465059 1.51157895,13.9465059 L4.45894737,13.9465059 C4.53568588,13.9465059 4.59789474,13.8837424 4.59789474,13.8063197 Z M10.847575,3.00006387 C10.8875697,2.99895889 10.9263624,3.01223036 10.9550885,3.0368456 C10.9838147,3.06146085 11.0000195,3.09531631 11,3.13067562 L11,19.8653066 C11,19.9396957 10.931757,20 10.847575,20 L7.15242496,20 C7.06824299,20 7.00000002,19.9396957 7.00000002,19.8653066 L7.00000002,18.7918413 C7.00000002,18.7174522 7.06824299,18.6571479 7.15242496,18.6571479 L9.32794457,18.6571479 C9.41212654,18.6571479 9.48036951,18.5968436 9.48036951,18.5224545 L9.48036951,11.1755434 C9.48036951,11.1011543 9.41212654,11.04085 9.32794457,11.04085 L7.15242496,11.04085 C7.06824299,11.04085 7.00000002,10.9805457 7.00000002,10.9061566 L7.00000002,9.83269126 C7.00000002,9.75830217 7.06824299,9.69799789 7.15242496,9.69799789 L9.32794457,9.69799789 C9.41212654,9.69799789 9.48036951,9.63769361 9.48036951,9.56330452 L9.48036951,8.93881707 C9.48036951,8.86442797 9.41212654,8.8041237 9.32794457,8.8041237 L7.15242496,8.8041237 C7.06824299,8.8041237 7.00000002,8.74381942 7.00000002,8.66943033 L7.00000002,7.59596497 C7.00000002,7.52157588 7.06824299,7.4612716 7.15242496,7.4612716 L9.32794457,7.4612716 C9.36793919,7.46237658 9.40673188,7.44910511 9.43545806,7.42448987 C9.46418424,7.39987462 9.48038905,7.36601916 9.48036951,7.33065984 L9.48036951,4.47352772 C9.48036951,4.39913863 9.41212654,4.33883435 9.32794457,4.33883435 L7.15242496,4.33883435 C7.06824299,4.33883435 7.00000002,4.27853007 7.00000002,4.20414098 L7.00000002,3.13067562 C6.99998047,3.09531631 7.01618529,3.06146085 7.04491147,3.0368456 C7.07363765,3.01223036 7.11243034,2.99895889 7.15242496,3.00006387 L10.847575,3.00006387 Z M14.8201635,7 L14.8201635,7.00847458 C14.9194845,7.00847458 15,7.07107883 15,7.14830508 L15,19.8601695 C15,19.9373957 14.9194845,20 14.8201635,20 L11.1798365,20 C11.0805155,20 11,19.9373957 11,19.8601695 L11,18.7457627 C11,18.6685365 11.0805155,18.6059322 11.1798365,18.6059322 L13.0326975,18.6059322 C13.0799077,18.6059501 13.12511,18.5910843 13.1579752,18.5647317 C13.1908403,18.538379 13.2085598,18.5027917 13.2070845,18.4661017 L13.2070845,15.5 C13.2085598,15.46331 13.1908403,15.4277227 13.1579752,15.40137 C13.12511,15.3750174 13.0799077,15.3601516 13.0326975,15.3601695 L11.1798365,15.3601695 C11.0805155,15.3601695 11,15.2975652 11,15.220339 L11,14.1059322 C11,14.0287059 11.0805155,13.9661017 11.1798365,13.9661017 L13.0326975,13.9661017 C13.0799077,13.9661196 13.12511,13.9512538 13.1579752,13.9249011 C13.1908403,13.8985485 13.2085598,13.8629612 13.2070845,13.8262712 L13.2070845,8.53389831 C13.2085598,8.49720833 13.1908403,8.46162096 13.1579752,8.43526835 C13.12511,8.40891573 13.0799077,8.39404987 13.0326975,8.3940678 L11.1798365,8.3940678 C11.0805155,8.3940678 11,8.33146355 11,8.25423729 L11,7.13983051 C11,7.06260425 11.0805155,7 11.1798365,7 L14.8201635,7 Z M8.99998472,13.9999924 C9.00145657,14.2656553 8.89657324,14.5208633 8.70871829,14.7087183 C8.52086334,14.8965732 8.2656553,15.0014566 7.99999236,14.9999847 C7.44771183,14.9999847 7,14.5522729 7,13.9999924 C7,13.4477118 7.44771183,13 7.99999236,13 C8.55227289,13 8.99998472,13.4477118 8.99998472,13.9999924 Z" id="Combined-Shape"></path>
                    </g>
                </g>
            </g>
        </g>
    </g>
</svg>