<?xml version="1.0" encoding="UTF-8"?>
<svg width="20px" height="16px" viewBox="0 0 20 16" version="1.1" xmlns="http://www.w3.org/2000/svg" xmlns:xlink="http://www.w3.org/1999/xlink">
    <!-- Generator: Sketch 53.2 (72643) - https://sketchapp.com -->
    <title>icon-twitter-black</title>
    <desc>Created with Sketch.</desc>
    <g id="Page-1" stroke="none" stroke-width="1" fill="none" fill-rule="evenodd">
        <g id="News/Blog-Article-Tablet" transform="translate(-52.000000, -2550.000000)" fill="#000000">
            <g id="article-content" transform="translate(16.000000, 125.000000)">
                <g id="Share-this" transform="translate(0.000000, 2392.000000)">
                    <g id="social-icons" transform="translate(0.000000, 31.000000)">
                        <g id="icon-twitter-black" transform="translate(36.000000, 2.000000)">
                            <path d="M20,1.87 C19.24923,2.19863602 18.4539411,2.41430759 17.64,2.51 C18.4950078,2.01216931 19.1386882,1.21912656 19.45,0.28 C18.6430376,0.759000916 17.7604351,1.09716277 16.84,1.28 C16.0579682,0.45980626 14.9732619,-0.0030017866 13.84,4.58509099e-16 C11.6075918,-0.0167846916 9.77833321,1.76785785 9.74,4 C9.736,4.33 9.773,4.66 9.85,4.98 C6.55590554,4.81478705 3.4842242,3.2680539 1.39,0.72 C1.03022983,1.32561832 0.837030852,2.01561468 0.83,2.72 C0.81964702,4.08871653 1.51004246,5.36764579 2.66,6.11 C2.00933574,6.0917266 1.37212652,5.9204338 0.8,5.61 L0.8,5.66 C0.793427033,7.61052983 2.17485779,9.2900809 4.09,9.66 C3.48634767,9.82152057 2.854132,9.84544225 2.24,9.73 C2.78874532,11.3861644 4.32549217,12.5136471 6.07,12.54 C4.61063066,13.6421119 2.82872953,14.2325644 1,14.22 C0.665782155,14.2195073 0.331879019,14.1994731 5.94940763e-16,14.16 C1.88185371,15.350426 4.06323442,15.9816045 6.29,15.98 C12.641,16.096 17.882,11.042 17.998,4.692 L18,4.49 L18,3.98 C18.7859337,3.40017364 19.463043,2.68582324 20,1.87" id="Path"></path>
                        </g>
                    </g>
                </g>
            </g>
        </g>
    </g>
</svg>