<?xml version="1.0" encoding="UTF-8"?>
<svg width="59px" height="54px" viewBox="0 0 59 54" version="1.1" xmlns="http://www.w3.org/2000/svg" xmlns:xlink="http://www.w3.org/1999/xlink">
    <!-- Generator: Sketch 53.2 (72643) - https://sketchapp.com -->
    <title>quotation-mark-blue</title>
    <desc>Created with Sketch.</desc>
    <g id="Symbols" stroke="none" stroke-width="1" fill="none" fill-rule="evenodd">
        <g id="testimonial-section/desktop" transform="translate(-256.000000, -211.000000)" fill="#0F4BEB" fill-rule="nonzero">
            <g id="content">
                <g transform="translate(255.000000, 175.000000)">
                    <g id="Group-2">
                        <g id="quotation-mark-blue" transform="translate(1.000000, 36.000000)">
                            <path d="M0.391113281,52.679741 L0.391113281,26.2224141 C0.391113281,18.4274207 2.22297057,12.1972093 5.8867401,7.53159282 C9.55050964,2.86597636 14.9333518,0.533203125 22.0354282,0.533203125 C22.599085,0.533203125 22.8809092,0.817687666 22.8809092,1.38666528 L22.8809092,11.0307877 C22.8809092,11.5997653 22.599085,11.8842498 22.0354282,11.8842498 C19.4426066,11.8842498 17.4134724,12.9795153 15.9479646,15.1700791 C14.4824568,17.360643 13.7497139,20.4188518 13.7497139,24.3447973 C13.7497139,24.9137749 14.0315381,25.1982595 14.5951949,25.1982595 L22.0354282,25.1982595 C22.599085,25.1982595 22.8809092,25.482744 22.8809092,26.0517216 L22.8809092,52.679741 C22.8809092,53.2487186 22.599085,53.5332031 22.0354282,53.5332031 L1.23659433,53.5332031 C0.67293748,53.5332031 0.391113281,53.2487186 0.391113281,52.679741 Z M35.9013174,52.679741 L35.9013174,26.2224141 C35.9013174,18.4274207 37.7331747,12.1972093 41.3969442,7.53159282 C45.0607137,2.86597636 50.4435559,0.533203125 57.5456322,0.533203125 C58.1092891,0.533203125 58.3911133,0.817687666 58.3911133,1.38666528 L58.3911133,11.0307877 C58.3911133,11.5997653 58.1092891,11.8842498 57.5456322,11.8842498 C54.9528107,11.8842498 52.9236765,12.9795153 51.4581687,15.1700791 C49.9926609,17.360643 49.2599179,20.4188518 49.2599179,24.3447973 C49.2599179,24.9137749 49.5417421,25.1982595 50.105399,25.1982595 L57.5456322,25.1982595 C58.1092891,25.1982595 58.3911133,25.482744 58.3911133,26.0517216 L58.3911133,52.679741 C58.3911133,53.2487186 58.1092891,53.5332031 57.5456322,53.5332031 L36.7467984,53.5332031 C36.1831416,53.5332031 35.9013174,53.2487186 35.9013174,52.679741 Z" id="“"></path>
                        </g>
                    </g>
                </g>
            </g>
        </g>
    </g>
</svg>