<?xml version="1.0" encoding="UTF-8"?>
<svg width="127px" height="60px" viewBox="0 0 127 60" version="1.1" xmlns="http://www.w3.org/2000/svg" xmlns:xlink="http://www.w3.org/1999/xlink">
    <!-- Generator: Sketch 53.2 (72643) - https://sketchapp.com -->
    <title>UTS-Online-logo-black</title>
    <desc>Created with Sketch.</desc>
    <g id="Symbols" stroke="none" stroke-width="1" fill="none" fill-rule="evenodd">
        <g id="header/desktop" transform="translate(-85.000000, -20.000000)" fill-rule="nonzero">
            <g id="header_first">
                <g>
                    <g id="UTS-Online-logo-black" transform="translate(85.000000, 20.000000)">
                        <g id="UTS" transform="translate(43.000000, 2.877193)" fill="#0A0A08">
                            <polyline id="Path" points="31.7894737 8.02667021 39.3490726 8.02667021 39.3490726 36.9824561 47.07198 36.9824561 47.07198 8.02667021 54.6315789 8.02667021 54.6315789 1.0877193 31.7894737 1.0877193 31.7894737 8.02667021"></polyline>
                            <path d="M17.3748,25.4526316 C17.3748,28.3337281 15.6848571,30.1295526 13.0170857,30.1295526 C10.2926286,30.1295526 8.65937143,28.3337281 8.65937143,25.450864 L8.65937143,0.752973684 L0.866857143,0.752973684 L0.866857143,25.5604518 C0.866857143,32.6306272 5.7684,37.0388816 13.0153143,37.0388816 C20.2604571,37.0388816 25.162,32.6323947 25.162,25.5604518 L25.162,0.752973684 L17.3765714,0.752973684 L17.3765714,25.4526316" id="Path"></path>
                            <path d="M75.2491429,15.2786491 L70.7816,13.5924123 C68.3299429,12.6662193 67.8941714,11.0895702 67.8941714,10.055557 C67.8941714,8.09711842 69.3113143,6.62828947 71.8161143,6.62828947 C74.2677714,6.62828947 75.9010286,8.25973246 75.9010286,10.8173684 L75.9010286,11.7965877 L83.2010857,11.7965877 L83.2010857,10.9799825 C83.2010857,4.34285526 78.6254857,0.208570175 71.8161143,0.208570175 C64.6790286,0.208570175 60.5392,5.10466667 60.5392,10.5451667 C60.5392,15.7682588 63.2636571,18.8702982 68.4397714,20.8269693 L73.4493714,22.730614 C75.6831429,23.6020132 76.5546857,24.7986404 76.5546857,26.5944649 C76.5546857,29.0955395 74.9214286,30.5643684 71.9790857,30.5643684 C69.0385143,30.5643684 67.2405143,29.2033596 67.2405143,26.3222632 L67.2405143,25.0160482 L59.8855429,25.0160482 L59.8855429,26.2674693 C59.8855429,32.9045965 65.0049714,37.0388816 71.9790857,37.0388816 C79.6050857,37.0388816 83.9645714,32.4149868 83.9645714,25.8326535 C83.9645714,19.2485526 79.7131429,16.964886 75.2491429,15.2786491" id="Path"></path>
                        </g>
                        <path d="M56.06,52.664 C56.06,53.6240048 55.9400012,54.502996 55.7,55.301 C55.4599988,56.099004 55.1030024,56.7859971 54.629,57.362 C54.1549976,57.9380029 53.5610036,58.3849984 52.847,58.703 C52.1329964,59.0210016 51.3020047,59.18 50.354,59.18 C49.4059953,59.18 48.5750036,59.0210016 47.861,58.703 C47.1469964,58.3849984 46.5530024,57.9380029 46.079,57.362 C45.6049976,56.7859971 45.2480012,56.099004 45.008,55.301 C44.7679988,54.502996 44.648,53.6240048 44.648,52.664 C44.648,51.7159953 44.7679988,50.843004 45.008,50.045 C45.2480012,49.246996 45.6049976,48.5600029 46.079,47.984 C46.5530024,47.4079971 47.1469964,46.9580016 47.861,46.634 C48.5750036,46.3099984 49.4059953,46.148 50.354,46.148 C51.3020047,46.148 52.1329964,46.3099984 52.847,46.634 C53.5610036,46.9580016 54.1549976,47.4079971 54.629,47.984 C55.1030024,48.5600029 55.4599988,49.246996 55.7,50.045 C55.9400012,50.843004 56.06,51.7159953 56.06,52.664 Z M50.354,57.2 C51.4820056,57.2 52.3399971,56.798004 52.928,55.994 C53.5160029,55.189996 53.81,54.0800071 53.81,52.664 C53.81,51.2479929 53.5160029,50.138004 52.928,49.334 C52.3399971,48.529996 51.4820056,48.128 50.354,48.128 C49.2259944,48.128 48.3680029,48.529996 47.78,49.334 C47.1919971,50.138004 46.898,51.2479929 46.898,52.664 C46.898,54.0800071 47.1919971,55.189996 47.78,55.994 C48.3680029,56.798004 49.2259944,57.2 50.354,57.2 Z M71.2439999,46.328 C71.3040002,46.328 71.3339999,46.3579997 71.3339999,46.418 L71.3339999,58.91 C71.3339999,58.9700003 71.3040002,59 71.2439999,59 L68.5619999,59 C68.5019996,59 68.46,58.9700003 68.4359999,58.91 L63.5219999,49.442 C63.4979998,49.3819997 63.4620002,49.355 63.4139999,49.361 C63.3659997,49.367 63.3419999,49.3939998 63.3419999,49.442 L63.3419999,58.91 C63.3419999,58.9700003 63.3120002,59 63.2519999,59 L61.2539999,59 C61.2059997,59 61.1819999,58.9700003 61.1819999,58.91 L61.1819999,46.418 C61.1819999,46.3579997 61.2119996,46.328 61.2719999,46.328 L63.9539999,46.328 C63.9900001,46.328 64.0259997,46.3579997 64.0619999,46.418 L68.9939999,55.886 C69.018,55.9460003 69.0539997,55.973 69.1019999,55.967 C69.1500002,55.961 69.1739999,55.9340002 69.1739999,55.886 L69.1739999,46.418 C69.1739999,46.3579997 69.2039996,46.328 69.2639999,46.328 L71.2439999,46.328 Z M77.0319998,59 C76.9719995,59 76.9419998,58.9700003 76.9419998,58.91 L76.9419998,46.418 C76.9419998,46.3579997 76.9719995,46.328 77.0319998,46.328 L79.0119998,46.328 C79.0720001,46.328 79.1019998,46.3579997 79.1019998,46.418 L79.1019998,56.948 C79.1019998,56.9960002 79.1259996,57.02 79.1739998,57.02 L85.2939998,57.02 C85.3540001,57.02 85.3839998,57.0499997 85.3839998,57.11 L85.3839998,58.91 C85.3839998,58.9700003 85.3540001,59 85.2939998,59 L77.0319998,59 Z M90.1279997,59 C90.0679994,59 90.0379997,58.9700003 90.0379997,58.91 L90.0379997,46.418 C90.0379997,46.3579997 90.0679994,46.328 90.1279997,46.328 L92.1079997,46.328 C92.168,46.328 92.1979997,46.3579997 92.1979997,46.418 L92.1979997,58.91 C92.1979997,58.9700003 92.168,59 92.1079997,59 L90.1279997,59 Z M107.868,46.328 C107.928,46.328 107.958,46.3579997 107.958,46.418 L107.958,58.91 C107.958,58.9700003 107.928,59 107.868,59 L105.186,59 C105.125999,59 105.084,58.9700003 105.06,58.91 L100.146,49.442 C100.122,49.3819997 100.086,49.355 100.038,49.361 C99.9899994,49.367 99.9659997,49.3939998 99.9659997,49.442 L99.9659997,58.91 C99.9659997,58.9700003 99.936,59 99.8759997,59 L97.8779997,59 C97.8299994,59 97.8059997,58.9700003 97.8059997,58.91 L97.8059997,46.418 C97.8059997,46.3579997 97.8359994,46.328 97.8959997,46.328 L100.578,46.328 C100.614,46.328 100.649999,46.3579997 100.686,46.418 L105.618,55.886 C105.642,55.9460003 105.677999,55.973 105.726,55.967 C105.774,55.961 105.798,55.9340002 105.798,55.886 L105.798,46.418 C105.798,46.3579997 105.827999,46.328 105.888,46.328 L107.868,46.328 Z M122.458,57.02 C122.518,57.02 122.548,57.0499997 122.548,57.11 L122.548,58.91 C122.548,58.9700003 122.518,59 122.458,59 L113.656,59 C113.595999,59 113.566,58.9700003 113.566,58.91 L113.566,46.418 C113.566,46.3579997 113.595999,46.328 113.656,46.328 L122.458,46.328 C122.518,46.328 122.548,46.3579997 122.548,46.418 L122.548,48.218 C122.548,48.2780003 122.518,48.308 122.458,48.308 L115.816,48.308 C115.755999,48.308 115.726,48.3379997 115.726,48.398 L115.726,51.494 C115.726,51.5540003 115.755999,51.584 115.816,51.584 L121.558,51.584 C121.618,51.584 121.648,51.6139997 121.648,51.674 L121.648,53.474 C121.648,53.5340003 121.618,53.564 121.558,53.564 L115.816,53.564 C115.755999,53.564 115.726,53.5939997 115.726,53.654 L115.726,56.93 C115.726,56.9900003 115.755999,57.02 115.816,57.02 L122.458,57.02 Z" id="ONLINE" fill="#000000"></path>
                        <g id="crest" fill="#0A0A08">
                            <path d="M23.5968055,45.4904684 L26.4567987,42.5954036 L30.2085756,46.3965422 L26.3860846,50.2692129 C25.6472956,51.0178688 24.6444987,51.4385705 23.5987697,51.4385705 C22.5530408,51.4385705 21.5502439,51.0178688 20.8114549,50.2692129 L16.9869996,46.3945552 L20.7387765,42.5954036 L23.5968055,45.4904684 Z M24.4925176,38.7942651 L24.4944819,38.7942651 L28.2462588,34.9951135 L32,38.7962521 L28.2482231,42.5954036 L24.4925176,38.7942651 Z M16.0912874,37.8921653 L16.0912874,37.8901783 L28.2462588,25.5826758 L32,29.3838144 L18.8786023,42.6669358 C18.139557,43.4151039 17.1368562,43.8354686 16.0912874,43.8354686 C15.0457186,43.8354686 14.0430177,43.4151039 13.3039725,42.6669358 L9.48148148,38.7962521 L13.2332584,34.9971005 L16.0912874,37.8921653 Z M21.0962756,5.07083408 L21.0982399,5.07083408 L16.0932517,10.1376941 L11.0862991,5.06686007 L16.0932517,2.13162821e-14 L21.0962756,5.07083408 Z M7.37513651,28.9910176 L7.37706667,28.9910176 L3.68660317,32.7077534 L3.55271368e-15,28.9910176 L3.68853333,25.2742818 L7.37513651,28.9910176 Z M15.6323556,29.8774357 L15.6342857,29.8774357 L3.68660317,41.9160051 L3.55271368e-15,38.1992694 L12.8934603,25.2043014 C13.6196673,24.4723635 14.6049498,24.0611179 15.6323556,24.0611179 C16.6597613,24.0611179 17.6450438,24.4723635 18.3712508,25.2043014 L22.1273397,28.9910176 L18.4407365,32.7077534 L15.6323556,29.8774357 Z M14.7541333,45.6346848 L14.7522032,45.6327409 L10.992254,49.4233449 C10.2662987,50.15576 9.28092191,50.5673354 8.25335873,50.5673354 C7.22579555,50.5673354 6.24041873,50.15576 5.51446349,49.4233449 L1.75644444,45.6346848 L5.4488381,41.9160051 L8.25721905,44.7482667 L11.0656,41.9160051 L14.7541333,45.6346848 Z M15.6323556,52.1817382 L18.4426667,49.3514206 L22.1292698,53.0701003 L18.3712508,56.8568164 C17.6450438,57.5887544 16.6597613,58 15.6323556,58 C14.6049498,58 13.6196673,57.5887544 12.8934603,56.8568164 L9.13544127,53.0701003 L12.8239746,49.3514206 L15.6323556,52.1817382 Z M9.74225988,17.0165253 L7.38601108,19.3027829 L2.37037037,14.4363748 L7.38601108,9.5699666 L9.74225988,11.8562242 L22.2577401,11.8562242 L24.6139889,9.5699666 L29.6296296,14.4363748 L24.6139889,19.3027829 L22.2577401,17.0165253 L18.6593919,17.0165253 L18.6593919,23.9249165 C17.0180784,22.9857797 14.9799532,22.9857797 13.3386396,23.9249165 L13.3386396,17.0165253 L9.74225988,17.0165253 Z" id="Combined-Shape"></path>
                        </g>
                    </g>
                </g>
            </g>
        </g>
    </g>
</svg>