<?xml version="1.0" encoding="utf-8"?>
<!-- Generator: Adobe Illustrator 23.1.1, SVG Export Plug-In . SVG Version: 6.00 Build 0)  -->
<svg version="1.1" id="Layer_1" xmlns="http://www.w3.org/2000/svg" xmlns:xlink="http://www.w3.org/1999/xlink" x="0px" y="0px"
	 viewBox="0 0 564.8 117" style="enable-background:new 0 0 564.8 117;" xml:space="preserve">
<style type="text/css">
	.st0{clip-path:url(#SVGID_2_);}
	.st1{clip-path:url(#SVGID_4_);}
	.st2{clip-path:url(#SVGID_6_);}
	.st3{clip-path:url(#SVGID_8_);}
	.st4{clip-path:url(#SVGID_10_);}
	.st5{clip-path:url(#SVGID_12_);}
	.st6{clip-path:url(#SVGID_14_);}
	.st7{clip-path:url(#SVGID_16_);}
	.st8{clip-path:url(#SVGID_18_);}
	.st9{clip-path:url(#SVGID_20_);}
	.st10{clip-path:url(#SVGID_22_);}
	.st11{clip-path:url(#SVGID_24_);fill:#323232;}
	.st12{display:none;}
</style>
<g id="UTS_Logo_Horizontal_Lock-Up">
	<polygon points="130.7,44.2 144.4,44.2 144.4,96.2 158.5,96.2 158.5,44.2 172.2,44.2 172.2,31.7 130.7,31.7 	"/>
	<g>
		<g>
			<g>
				<defs>
					<rect id="SVGID_1_" x="-46.5" y="-36.5" width="318.1" height="189.9"/>
				</defs>
				<clipPath id="SVGID_2_">
					<use xlink:href="#SVGID_1_"  style="overflow:visible;"/>
				</clipPath>
				<path class="st0" d="M104.3,76.3c0,5.2-3,8.4-7.9,8.4s-7.9-3.2-7.9-8.4V31.7h-14v44.8c0,12.8,8.8,20.7,21.9,20.7
					s21.9-7.9,21.9-20.7V31.7h-14V76.3L104.3,76.3z"/>
			</g>
		</g>
		<g>
			<g>
				<defs>
					<rect id="SVGID_3_" x="-46.5" y="-36.5" width="318.1" height="189.9"/>
				</defs>
				<clipPath id="SVGID_4_">
					<use xlink:href="#SVGID_3_"  style="overflow:visible;"/>
				</clipPath>
				<path class="st1" d="M208.6,57.9l-8-3c-4.4-1.7-5.2-4.5-5.2-6.4c0-3.5,2.5-6.2,7.1-6.2c4.4,0,7.4,2.9,7.4,7.6v1.8H223v-1.5
					c0-12-8.2-19.4-20.5-19.4c-12.9,0-20.3,8.8-20.3,18.7c0,9.4,4.9,15,14.2,18.6l9,3.4c4,1.6,5.6,3.7,5.6,7c0,4.5-2.9,7.2-8.2,7.2
					s-8.5-2.4-8.5-7.7v-2.4h-13.2v2.3c0,12,9.2,19.4,21.8,19.4c13.7,0,21.6-8.3,21.6-20.2C224.3,65.1,216.6,60.9,208.6,57.9"/>
			</g>
		</g>
		<g>
			<g>
				<defs>
					<rect id="SVGID_5_" x="-87.8" y="-206.4" width="189.9" height="318.1"/>
				</defs>
				<clipPath id="SVGID_6_">
					<use xlink:href="#SVGID_5_"  style="overflow:visible;"/>
				</clipPath>
				
					<rect x="2.7" y="54" transform="matrix(0.7071 -0.7071 0.7071 0.7071 -39.1822 22.0042)" class="st2" width="8.6" height="8.6"/>
			</g>
		</g>
		<g>
			<g>
				<defs>
					<rect id="SVGID_7_" x="-46.5" y="-36.5" width="318.1" height="189.9"/>
				</defs>
				<clipPath id="SVGID_8_">
					<use xlink:href="#SVGID_7_"  style="overflow:visible;"/>
				</clipPath>
				<path class="st3" d="M26.8,59.7l4.6,4.6l6.1-6.1L31.3,52c-2.5-2.5-6.6-2.5-9.1,0L0.9,73.4L7,79.5L26.8,59.7z"/>
			</g>
		</g>
		<g>
			<g>
				<defs>
					<rect id="SVGID_9_" x="-46.5" y="-36.5" width="318.1" height="189.9"/>
				</defs>
				<clipPath id="SVGID_10_">
					<use xlink:href="#SVGID_9_"  style="overflow:visible;"/>
				</clipPath>
				<path class="st4" d="M25.3,85.6l-6.1-6.1l-4.7,4.6l-4.6-4.6l-6.1,6.1l6.2,6.2c2.5,2.5,6.6,2.5,9.1,0L25.3,85.6z"/>
			</g>
		</g>
		<g>
			<g>
				<defs>
					<rect id="SVGID_11_" x="-46.5" y="-36.5" width="318.1" height="189.9"/>
				</defs>
				<clipPath id="SVGID_12_">
					<use xlink:href="#SVGID_11_"  style="overflow:visible;"/>
				</clipPath>
				<path class="st5" d="M26.8,96.3l-4.6-4.6l-6.1,6.1l6.2,6.2c2.5,2.5,6.6,2.5,9.1,0l6.2-6.2l-6.1-6.1L26.8,96.3z"/>
			</g>
		</g>
		<g>
			<g>
				<defs>
					<rect id="SVGID_13_" x="-46.5" y="-36.5" width="318.1" height="189.9"/>
				</defs>
				<clipPath id="SVGID_14_">
					<use xlink:href="#SVGID_13_"  style="overflow:visible;"/>
				</clipPath>
				<path class="st6" d="M39,84.1l-4.6-4.6l-6.1,6.1l6.2,6.2c2.5,2.5,6.6,2.5,9.1,0l6.2-6.2l-6.1-6.1L39,84.1z"/>
			</g>
		</g>
		<g>
			<g>
				<defs>
					<rect id="SVGID_15_" x="-63.4" y="-151.8" width="189.9" height="318.1"/>
				</defs>
				<clipPath id="SVGID_16_">
					<use xlink:href="#SVGID_15_"  style="overflow:visible;"/>
				</clipPath>
				
					<rect x="42.2" y="69.1" transform="matrix(0.7071 -0.7071 0.7071 0.7071 -38.2921 54.3549)" class="st7" width="8.6" height="8.6"/>
			</g>
		</g>
		<g>
			<g>
				<defs>
					<rect id="SVGID_17_" x="-46.5" y="-36.5" width="318.1" height="189.9"/>
				</defs>
				<clipPath id="SVGID_18_">
					<use xlink:href="#SVGID_17_"  style="overflow:visible;"/>
				</clipPath>
				<path class="st8" d="M26.8,71.9l-4.6-4.6l-6.1,6.1l6.2,6.2c2.5,2.5,6.6,2.5,9.1,0l21.3-21.3l-6.1-6.1L26.8,71.9z"/>
			</g>
		</g>
		<g>
			<g>
				<defs>
					<rect id="SVGID_19_" x="-29" y="-225.6" width="189.9" height="318.1"/>
				</defs>
				<clipPath id="SVGID_20_">
					<use xlink:href="#SVGID_19_"  style="overflow:visible;"/>
				</clipPath>
				
					<rect x="20.9" y="13.5" transform="matrix(0.7072 -0.707 0.707 0.7072 -5.8001 24.5149)" class="st9" width="11.5" height="11.5"/>
			</g>
		</g>
		<g>
			<g>
				<defs>
					<rect id="SVGID_21_" x="-46.5" y="-36.5" width="318.1" height="189.9"/>
				</defs>
				<clipPath id="SVGID_22_">
					<use xlink:href="#SVGID_21_"  style="overflow:visible;"/>
				</clipPath>
				<path class="st10" d="M16.6,37.8h5.8v11.5c2.7-1.6,6-1.6,8.6,0V37.8h5.8l3.8,3.8l8.1-8.1l-8.1-8.1l-3.8,3.8H16.6l-3.8-3.9
					l-8.1,8.1l8.1,8.1L16.6,37.8z"/>
			</g>
		</g>
	</g>
	<g>
		<g>
			<g>
				<defs>
					<rect id="SVGID_23_" x="-46.5" y="-36.5" width="602.3" height="189.9"/>
				</defs>
				<clipPath id="SVGID_24_">
					<use xlink:href="#SVGID_23_"  style="overflow:visible;"/>
				</clipPath>
				<path class="st11" d="M523.2,69.2c-0.3,0-0.4-0.1-0.4-0.4c0-3.5,3.5-8.6,10.8-8.6c7.5,0,10.5,5,10.5,8.6c0,0.3-0.1,0.4-0.4,0.4
					H523.2z M555.3,77.8c0.3-1.1,0.4-1.9,0.5-3.7c0-14.2-8.9-23.9-22.2-23.9s-22.2,9.6-22.2,23.9c0,14.2,8.9,23.9,22.2,23.9
					c10.3,0,18.6-5.3,20.6-14.1c0.1-0.3-0.2-0.4-0.5-0.4h-10.6c-0.5,0-0.6,0.3-0.7,0.4c-1.5,3.1-4.8,4.1-8.8,4.1
					c-6.5,0-10.8-4.3-10.8-9.3c0-0.3,0.2-0.5,0.5-0.5h31.6C555.2,78.2,555.3,78.1,555.3,77.8 M472.5,54.4c-0.4,0.5-0.8,0.3-1-0.1
					l-1-2.8c-0.1-0.4-0.3-0.4-0.8-0.4h-8.6c-0.3,0-0.5,0.2-0.5,0.4v45c0,0.3,0.2,0.5,0.5,0.5h10c0.3,0,0.5-0.2,0.5-0.5V70.9
					c0-5.4,2.9-10.7,10-10.7c7.2,0,10.1,6.2,10.1,11.6v24.8c0,0.3,0.2,0.5,0.5,0.5h10c0.3,0,0.5-0.2,0.5-0.5V71.8
					c0-11.4-4.9-21.6-19.2-21.6C479.5,50.2,474.5,52.4,472.5,54.4 M449.6,97c0.3,0,0.5-0.2,0.5-0.5v-45c0-0.3-0.2-0.4-0.5-0.4h-10
					c-0.3,0-0.5,0.2-0.5,0.4v45c0,0.3,0.2,0.5,0.5,0.5H449.6z M450,45.1c0.3,0,0.5-0.2,0.5-0.4V33.6c0-0.3-0.2-0.5-0.5-0.5h-10.9
					c-0.3,0-0.5,0.2-0.5,0.5v11.1c0,0.3,0.2,0.4,0.5,0.4H450z M425,97c0.3,0,0.5-0.2,0.5-0.5v-63c0-0.3-0.2-0.5-0.5-0.5h-10
					c-0.3,0-0.5,0.2-0.5,0.5v63c0,0.3,0.2,0.5,0.5,0.5H425L425,97z M373,54.4c-0.4,0.5-0.8,0.3-1-0.1l-1-2.8
					c-0.1-0.4-0.3-0.4-0.8-0.4h-8.6c-0.3,0-0.5,0.2-0.5,0.4v45c0,0.3,0.2,0.5,0.5,0.5h10c0.3,0,0.5-0.2,0.5-0.5V70.9
					c0-5.4,2.9-10.7,10-10.7c7.2,0,10.1,6.2,10.1,11.6v24.8c0,0.3,0.2,0.5,0.5,0.5h10c0.3,0,0.5-0.2,0.5-0.5V71.8
					c0-11.4-4.9-21.6-19.2-21.6C380,50.2,374.9,52.4,373,54.4 M321.4,87.9c-11.3,0-17.4-8.6-17.4-22.9s6.2-22.9,17.4-22.9
					c11.3,0,17.4,8.6,17.4,22.9S332.7,87.9,321.4,87.9 M350.2,65.1c0-19.2-9.6-32.9-28.8-32.9c-19.2,0-28.8,13.6-28.8,32.9
					S302.2,98,321.4,98C340.6,97.9,350.2,84.3,350.2,65.1"/>
			</g>
		</g>
	</g>
</g>
<g id="Guides" class="st12">
</g>
</svg>
