<?xml version="1.0" encoding="utf-8"?>
<!-- Generator: Adobe Illustrator 23.1.1, SVG Export Plug-In . SVG Version: 6.00 Build 0)  -->
<svg version="1.1" xmlns="http://www.w3.org/2000/svg" xmlns:xlink="http://www.w3.org/1999/xlink" x="0px" y="0px"
	 viewBox="0 0 691.04 225.24" style="enable-background:new 0 0 691.04 225.24;" xml:space="preserve">
<style type="text/css">
	.st0{clip-path:url(#SVGID_2_);}
	.st1{clip-path:url(#SVGID_4_);fill:#323232;}
	.st2{display:none;}
</style>
<g id="UTS_Logo_Horizontal_Lock-Up">
	<polygon points="197.9,98.17 211.64,98.17 211.64,150.19 225.68,150.19 225.68,98.17 239.42,98.17 239.42,85.71 197.9,85.71 	"/>
	<g>
		<defs>
			<rect id="SVGID_1_" x="20.74" y="17.53" width="318.09" height="189.93"/>
		</defs>
		<clipPath id="SVGID_2_">
			<use xlink:href="#SVGID_1_"  style="overflow:visible;"/>
		</clipPath>
		<path class="st0" d="M171.48,130.27c0,5.2-3.04,8.44-7.85,8.44c-4.91,0-7.85-3.24-7.85-8.44V85.71h-14.03v44.76
			c0,12.76,8.83,20.71,21.89,20.71c13.05,0,21.89-7.95,21.89-20.71V85.71h-14.03V130.27z"/>
		<path class="st0" d="M275.75,111.91l-8.05-3.04c-4.42-1.67-5.2-4.51-5.2-6.38c0-3.53,2.55-6.18,7.07-6.18
			c4.42,0,7.36,2.94,7.36,7.56v1.77h13.15v-1.47c0-11.97-8.25-19.43-20.51-19.43c-12.86,0-20.32,8.83-20.32,18.65
			c0,9.42,4.91,15.02,14.23,18.55l9.03,3.44c4.03,1.57,5.6,3.73,5.6,6.97c0,4.51-2.94,7.16-8.25,7.16c-5.3,0-8.54-2.45-8.54-7.66
			v-2.36h-13.25v2.26c0,11.97,9.23,19.43,21.79,19.43c13.74,0,21.59-8.34,21.59-20.22C291.45,119.08,283.8,114.95,275.75,111.91"/>
		
			<rect x="69.9" y="107.97" transform="matrix(0.7071 -0.7071 0.7071 0.7071 -57.6598 85.3615)" class="st0" width="8.62" height="8.62"/>
		<path class="st0" d="M93.96,113.74l4.64,4.64l6.1-6.1l-6.21-6.21c-2.5-2.5-6.56-2.5-9.06,0l-21.32,21.32l6.1,6.1L93.96,113.74z"/>
		<path class="st0" d="M92.51,139.58l-6.1-6.1l-4.65,4.64l-4.64-4.64l-6.1,6.1l6.21,6.21c2.5,2.5,6.56,2.5,9.06,0L92.51,139.58z"/>
		<path class="st0" d="M93.96,150.33l-4.64-4.64l-6.1,6.1l6.22,6.22c2.5,2.5,6.56,2.5,9.06,0l6.22-6.22l-6.1-6.1L93.96,150.33z"/>
		<path class="st0" d="M106.16,138.13l-4.64-4.64l-6.1,6.1l6.22,6.22c2.5,2.5,6.56,2.5,9.06,0l6.21-6.21l-6.1-6.1L106.16,138.13z"/>
		
			<rect x="109.4" y="123.07" transform="matrix(0.7071 -0.7071 0.7071 0.7071 -56.7721 117.7163)" class="st0" width="8.62" height="8.63"/>
		<path class="st0" d="M93.96,125.94l-4.64-4.64l-6.1,6.1l6.21,6.21c2.5,2.5,6.56,2.5,9.06,0l21.32-21.32l-6.1-6.1L93.96,125.94z"/>
		
			<rect x="88.21" y="67.51" transform="matrix(0.7072 -0.707 0.707 0.7072 -24.2846 87.8835)" class="st0" width="11.5" height="11.5"/>
		<path class="st0" d="M83.81,91.77h5.83v11.54c2.65-1.57,5.98-1.57,8.63,0V91.77h5.83l3.82,3.82l8.13-8.13l-8.13-8.13l-3.82,3.82
			H83.81l-3.82-3.82l-8.13,8.13l8.13,8.13L83.81,91.77z"/>
	</g>
	<g>
		<defs>
			<rect id="SVGID_3_" x="20.74" y="17.54" width="602.27" height="189.93"/>
		</defs>
		<clipPath id="SVGID_4_">
			<use xlink:href="#SVGID_3_"  style="overflow:visible;"/>
		</clipPath>
		<path class="st1" d="M590.41,123.15c-0.27,0-0.36-0.09-0.36-0.36c0-3.54,3.45-8.63,10.81-8.63c7.45,0,10.53,4.99,10.53,8.63
			c0,0.27-0.09,0.36-0.36,0.36H590.41z M622.55,131.78c0.27-1.09,0.36-1.91,0.46-3.72c0-14.17-8.9-23.88-22.16-23.88
			c-13.26,0-22.16,9.62-22.16,23.88c0,14.17,8.9,23.88,22.16,23.88c10.35,0,18.62-5.27,20.61-14.08c0.09-0.27-0.18-0.45-0.45-0.45
			h-10.63c-0.45,0-0.64,0.27-0.73,0.45c-1.54,3.09-4.81,4.09-8.81,4.09c-6.45,0-10.81-4.27-10.81-9.26c0-0.27,0.18-0.46,0.45-0.46
			h31.6C622.37,132.24,622.46,132.05,622.55,131.78 M539.74,108.44c-0.36,0.46-0.82,0.27-1-0.09l-1-2.81
			c-0.09-0.36-0.27-0.45-0.82-0.45h-8.63c-0.27,0-0.45,0.18-0.45,0.45v45.04c0,0.27,0.18,0.46,0.45,0.46h9.99
			c0.27,0,0.46-0.18,0.46-0.46v-25.7c0-5.45,2.91-10.71,9.99-10.71c7.17,0,10.08,6.17,10.08,11.62v24.79c0,0.27,0.18,0.46,0.45,0.46
			h9.99c0.27,0,0.45-0.18,0.45-0.46v-24.79c0-11.44-4.9-21.61-19.16-21.61C546.73,104.18,541.65,106.45,539.74,108.44
			 M516.76,151.03c0.27,0,0.46-0.18,0.46-0.46v-45.04c0-0.27-0.18-0.45-0.46-0.45h-9.99c-0.27,0-0.45,0.18-0.45,0.45v45.04
			c0,0.27,0.18,0.46,0.45,0.46H516.76z M517.22,99.09c0.27,0,0.45-0.18,0.45-0.45V87.56c0-0.27-0.18-0.46-0.45-0.46h-10.9
			c-0.27,0-0.46,0.18-0.46,0.46v11.08c0,0.27,0.18,0.45,0.46,0.45H517.22z M492.25,151.03c0.27,0,0.45-0.18,0.45-0.46V87.56
			c0-0.27-0.18-0.46-0.45-0.46h-9.99c-0.27,0-0.45,0.18-0.45,0.46v63.02c0,0.27,0.18,0.46,0.45,0.46H492.25z M440.22,108.44
			c-0.36,0.46-0.82,0.27-1-0.09l-1-2.81c-0.09-0.36-0.27-0.45-0.82-0.45h-8.63c-0.27,0-0.45,0.18-0.45,0.45v45.04
			c0,0.27,0.18,0.46,0.45,0.46h9.99c0.27,0,0.45-0.18,0.45-0.46v-25.7c0-5.45,2.91-10.71,9.99-10.71c7.17,0,10.08,6.17,10.08,11.62
			v24.79c0,0.27,0.18,0.46,0.46,0.46h9.99c0.27,0,0.45-0.18,0.45-0.46v-24.79c0-11.44-4.9-21.61-19.16-21.61
			C447.21,104.18,442.12,106.45,440.22,108.44 M388.64,141.95c-11.26,0-17.44-8.63-17.44-22.88s6.17-22.88,17.44-22.88
			c11.26,0,17.44,8.63,17.44,22.88S399.9,141.95,388.64,141.95 M417.42,119.07c0-19.25-9.62-32.87-28.79-32.87
			c-19.16,0-28.79,13.62-28.79,32.87s9.63,32.87,28.79,32.87C407.8,151.94,417.42,138.32,417.42,119.07"/>
	</g>
</g>
<g id="Guides" class="st2">
</g>
</svg>
